<?xml version="1.0" encoding="utf-8"?>
<!-- Generator: Adobe Illustrator 23.0.3, SVG Export Plug-In . SVG Version: 6.00 Build 0)  -->
<svg version="1.1" id="Capa_1" xmlns="http://www.w3.org/2000/svg" xmlns:xlink="http://www.w3.org/1999/xlink" x="0px" y="0px"
	 viewBox="0 0 83 77" style="enable-background:new 0 0 83 77;" xml:space="preserve">
<style type="text/css">
	.st0{fill:#FFFFFF;}
</style>
<g>
	<path class="st0" d="M76.48,17.97c-2.43-2.29-5.36-3.9-8.78-3.71c-1.94,0.1-3.83,0.68-5.66,1.31c-1.79,0.61-3.56,1.32-5.17,2.32
		c-0.65,0.4-1.25,0.86-1.82,1.35c-0.03-5.97,0.39-11.93,1.25-17.83c0.02-0.15-0.18-0.21-0.27-0.11c-1.02,1.23-2.75,0.77-4.05,0.36
		c-1.1-0.35-2.17-0.65-3.32-0.33C47.52,1.65,46.43,2.35,45.44,3c-0.93,0.6-1.75,1.32-2.29,2.29c-0.62,1.13-0.91,2.43-1.26,3.65
		c-0.36,1.27-0.71,2.54-0.98,3.83c-0.55,2.53-0.81,5.12-0.43,7.69c-1.06-1.87-2.46-3.46-4.16-4.75c-0.38-1.35-1.03-2.59-2.02-3.45
		C34,12,33.63,12.38,33.75,12.69c0.24,0.65,0.53,1.25,0.81,1.86c-0.17-0.1-0.33-0.2-0.5-0.29c-0.25-0.85-0.73-1.74-0.99-2.27
		c-0.44-0.9-1.17-2.58-2.19-2.94C30.77,9,30.64,9.07,30.62,9.19c-0.08,0.84,0.64,1.71,1,2.43c0.27,0.55,0.52,1.11,0.74,1.68
		c0.01,0.04,0.03,0.08,0.05,0.13c-1.83-0.85-3.75-1.51-5.67-2.1c-1.31-0.41-2.46-0.7-3.71,0.05c-1.14,0.69-2.44,2-3.02,3.21
		c-0.33,0.68-0.28,1.49-0.85,2.04c-0.41,0.4-0.96,0.63-1.48,0.85c-0.8,0.34-1.79,0.67-2.22,1.49c-0.29,0.56-0.23,1.13-0.01,1.68
		c-0.02,0.02-0.02,0.05,0.01,0.06c0,0,0.01,0,0.01,0c0.06,0.15,0.13,0.3,0.21,0.44c-0.04,0.01-0.05,0.07,0,0.08
		c0.02,0,0.03,0.01,0.05,0.01c0.07,0.13,0.15,0.25,0.23,0.37c-0.01,0.02,0,0.04,0.02,0.05c0.01,0,0.01,0,0.01,0
		c0.16,0.24,0.32,0.47,0.48,0.68c-0.03,0.02-0.03,0.06,0.01,0.07c0.02,0.01,0.04,0.02,0.06,0.02c1.03,1.45,2.15,2.85,3.27,4.24
		c0.7,0.87,1.42,1.73,2.18,2.56c-2.34-0.3-4.7-0.41-7.05-0.3c-2.26,0.11-4.59,0.43-6.58,1.59c-0.51,0.3-0.98,0.64-1.42,1.01
		c-0.03,0-0.07-0.01-0.1,0.01c-0.02,0.01-0.03,0.03-0.03,0.05c0,0.02,0,0.03,0,0.05c0,0,0,0,0,0.01c-1.74,1.48-3.02,3.44-4.1,5.48
		c-0.02,0.01-0.03,0.02-0.02,0.04c-0.25,0.48-0.49,0.95-0.73,1.43c-0.01,0-0.01,0-0.02,0.01c-0.03,0.01-0.03,0.04-0.01,0.06
		C1.78,39,1.61,39.33,1.46,39.66c-0.06,0.12,0.09,0.24,0.2,0.19c6.82-2.91,13.91,1.21,20.85,1.51c-0.17,0.09-0.35,0.18-0.51,0.28
		c-2.17,1.3-4.22,3.07-5.9,5.05c-0.03,0-0.05,0.01-0.08,0.01c-0.05,0.01-0.04,0.07,0,0.08c-0.41,0.49-0.81,1-1.18,1.51
		c-2.07,2.94-3.24,6.53-2.73,10.13c0.01,0.06,0.06,0.12,0.13,0.13c6.11,0.6,9.3-6.03,14.38-8.05c2.9-1.15,6.14-1.07,9.1-2.08
		c1.36-0.46,2.67-1.08,3.9-1.82c1.2-0.72,2.25-1.6,3.35-2.45c0.72-0.55,1.51-1.09,2.41-1.29c0.25-0.06,0.5-0.08,0.76-0.09
		c-0.77,1.16-1.53,2.68-0.52,3.92c0.96,1.16,2.8,1.33,4.17,1.63c1.21,0.26,2.43,0.53,3.63,0.87c-0.07,0.09-0.09,0.21-0.03,0.32
		c0.07,0.12,0.13,0.18,0.27,0.2c-0.03,0.1,0.01,0.21,0.12,0.31c0.08,0.14,0.17,0.27,0.25,0.41c0.21,0.34,0.42,0.67,0.63,1.01
		c0.42,0.67,0.85,1.34,1.28,2.01c0.81,1.27,1.62,2.55,2.42,3.82c1.68,2.68,3.2,5.46,4.81,8.18c1.47,2.49,3.17,4.79,5.01,7.02
		c0.95,1.15,2.82,3.86,4.61,2.6c0.19-0.13,0.13-0.46-0.08-0.53c-2.41-0.83-3.91-3.35-5.42-5.3c-1.89-2.43-3.4-5.06-4.95-7.72
		c-1.42-2.44-2.93-4.83-4.5-7.18c-0.79-1.19-1.6-2.36-2.42-3.53c-0.21-0.29-0.48-0.86-0.82-1.27c0.44,0.15,0.88,0.3,1.32,0.48
		c1.66,0.67,3.15,1.65,4.63,2.64c0.02,0.04,0.05,0.08,0.07,0.12c0.02,0.05,0.08,0.02,0.08-0.03c0.03,0.02,0.06,0.04,0.1,0.06
		c1.45,0.97,2.94,1.94,4.61,2.47c1.19,0.38,2.76,0.69,3.3-0.71c0,0,0,0,0-0.01c0.01-0.03,0.03-0.05,0.04-0.09
		c0.19-0.58,0.17-1.22,0.1-1.82c-0.12-1.02-0.33-2.03-0.58-3.03c0.03,0,0.06-0.01,0.04-0.05c-0.02-0.04-0.05-0.08-0.08-0.11
		c-0.04-0.17-0.07-0.34-0.12-0.5c-0.54-2.08-1.24-4.11-1.95-6.13c-1.14-3.24-2.91-7.63-6.9-7.73c0.16-0.11,0.33-0.23,0.49-0.34
		c2.29-1.56,4.6-3.09,6.94-4.58c1.13-0.72,2.26-1.44,3.39-2.15c1.19-0.74,2.38-1.53,3.7-2.05c2.63-1.04,5.62-0.79,8.08,0.55
		c0.1,0.05,0.22-0.06,0.2-0.16C81.36,23.08,78.89,20.24,76.48,17.97z M40.83,20.84c-0.47-2.73-0.19-5.47,0.4-8.16
		c0.29-1.34,0.66-2.66,1.04-3.98c0.13,0.56,0.23,1.11,0.29,1.68c0.01,0.06,0.09,0.04,0.09-0.01c-0.06-0.57-0.16-1.14-0.29-1.7
		c-0.01-0.04-0.06-0.04-0.07,0c0.01-0.04,0.02-0.09,0.04-0.13C42.46,8.03,42.6,7.51,42.77,7c0.46,0.7,0.74,1.47,0.83,2.3
		c0.01,0.06,0.09,0.04,0.09-0.01c-0.09-0.87-0.39-1.67-0.88-2.4c0.02-0.08,0.05-0.15,0.08-0.23c0.43,0.78,0.75,1.62,0.93,2.5
		c0.01,0.05,0.1,0.04,0.09-0.01c-0.19-0.91-0.51-1.78-0.97-2.59c0.04-0.11,0.09-0.22,0.13-0.34c0.43,0.64,0.83,1.31,1.17,2.01
		c0.02,0.05,0.1,0.01,0.08-0.03c-0.36-0.72-0.76-1.41-1.21-2.07c0.04-0.09,0.07-0.18,0.11-0.27c0.05,0.06,0.09,0.13,0.14,0.19
		c0.01,0.01,0.01,0,0.02,0c0.46,0.56,0.79,1.19,0.99,1.9c0.01,0.05,0.1,0.04,0.09-0.01c-0.22-0.81-0.62-1.54-1.19-2.16
		c0.07-0.14,0.15-0.27,0.23-0.41c0.37,0.62,0.67,1.26,0.91,1.93c0.02,0.05,0.1,0.02,0.08-0.03c-0.25-0.69-0.56-1.34-0.93-1.96
		c0-0.01-0.01,0-0.02-0.01c0.05-0.08,0.09-0.17,0.14-0.26c0.04-0.06,0.09-0.1,0.13-0.16c0.24,0.57,0.4,1.16,0.49,1.77
		c0.01,0.05,0.09,0.04,0.09-0.01c-0.08-0.62-0.25-1.22-0.49-1.8c-0.01-0.02-0.02-0.01-0.04-0.01c0.11-0.14,0.22-0.28,0.34-0.4
		c0.21,0.72,0.45,1.44,0.72,2.14c0.02,0.05,0.1,0.02,0.08-0.03c-0.27-0.72-0.52-1.45-0.73-2.19c0.09-0.09,0.19-0.18,0.29-0.27
		c0.26,0.74,0.45,1.5,0.53,2.29c0.01,0.06,0.09,0.04,0.09-0.01c-0.09-0.8-0.27-1.58-0.55-2.34c0.37-0.32,0.77-0.62,1.2-0.89
		c-0.01,0.01-0.03,0.02-0.02,0.04c0.34,0.82,0.52,1.68,0.54,2.57c0,0.06,0.09,0.04,0.09-0.01c-0.02-0.9-0.21-1.76-0.55-2.59
		c-0.01-0.02-0.03-0.02-0.05-0.02c0.27-0.17,0.54-0.32,0.81-0.48c0.11-0.07,0.23-0.13,0.34-0.19c0.19,0.65,0.35,1.31,0.49,1.98
		c0.01,0.05,0.1,0.04,0.09-0.01c-0.14-0.68-0.3-1.35-0.49-2.01c0.75-0.41,1.49-0.75,2.3-0.86c-0.01,0-0.03,0.01-0.03,0.02
		c-0.2,0.88-0.25,1.77-0.17,2.66c0.01,0.06,0.09,0.04,0.09-0.01c-0.08-0.89-0.03-1.77,0.17-2.64c0-0.02-0.01-0.03-0.03-0.04
		c0.43-0.06,0.87-0.05,1.35,0.05c0.63,0.14,1.33,0.38,2.04,0.57c0.13,0.73,0.18,1.46,0.16,2.2c0,0.05,0.08,0.07,0.09,0.01
		C53,3.63,52.95,2.9,52.83,2.18c0.82,0.21,1.65,0.31,2.38,0.05c-0.27,0.74-0.42,1.49-0.45,2.27c0,0.05,0.08,0.07,0.09,0.01
		c0.04-0.78,0.19-1.54,0.46-2.27c0.01-0.02-0.01-0.03-0.02-0.04c0.24-0.09,0.47-0.22,0.68-0.4c-0.82,5.8-1.22,11.66-1.19,17.52
		c0,0.05,0.02,0.09,0.06,0.12c-0.17,0.15-0.33,0.31-0.49,0.47c0.04-0.17,0.06-0.35,0.08-0.52c0.09-0.61,0.17-1.21,0.26-1.82
		c0.01-0.06-0.08-0.07-0.09-0.01c-0.07,0.5-0.14,1-0.21,1.51c-0.04,0.31-0.07,0.65-0.16,0.96c-1.46,1.45-2.67,3.16-3.81,4.89
		c0.28-0.99,0.43-1.99,0.45-3.02c0-0.05-0.08-0.07-0.09-0.01c-0.02,1.11-0.19,2.19-0.52,3.25c-0.15,0.23-0.29,0.45-0.44,0.68
		c0.23-1.04,0.46-2.08,0.69-3.13c0.01-0.05-0.07-0.06-0.09-0.01c-0.24,1.07-0.47,2.14-0.71,3.21c-0.01,0.02,0.01,0.03,0.03,0.04
		c-0.02,0.02-0.03,0.05-0.05,0.07c-0.19,0.29-0.37,0.59-0.55,0.88c-0.18-1.44,1.18-2.63,0.82-4.08c-0.01-0.05-0.1-0.04-0.09,0.01
		c0.36,1.45-1.03,2.66-0.82,4.12c0,0.02,0.02,0.02,0.04,0.03c-0.33,0.55-0.62,1.12-0.83,1.72c-0.23,0.67-0.35,1.36-0.43,2.06
		c-0.01,0.02-0.02,0.03-0.02,0.05c-0.05-0.74-0.09-1.48-0.11-2.22c-0.01-0.53-0.04-1.09-0.04-1.65c0.28-1.3,0.56-2.6,0.8-3.91
		c0,0,0-0.01,0-0.01c0.01-0.02,0.01-0.04,0.01-0.06c0-0.02,0.01-0.04,0.01-0.06c0.29-1.6,0.5-3.21,0.56-4.83
		c0.05-1.61,0.02-3.23,0.41-4.8c0.01-0.05-0.07-0.06-0.09-0.01c-0.39,1.57-0.36,3.19-0.41,4.8c-0.05,1.62-0.27,3.23-0.56,4.83
		c-0.03-0.01-0.06,0-0.08,0.03c-0.8,1.3-0.84,2.85-0.82,4.35c-0.36,1.73-0.7,3.47-0.9,5.23c-0.01,0.05,0.08,0.07,0.09,0.01
		c0.18-1.63,0.48-3.25,0.82-4.85c0,0.15,0.01,0.31,0.01,0.46c0.02,1.24,0.1,2.47,0.2,3.7c0,0-0.01,0.01-0.01,0.01
		c-0.02,0.02-0.01,0.05,0.01,0.06c0.01,0.09,0.01,0.18,0.02,0.27c-0.07,1.59-0.06,3.19-0.02,4.78c-0.41-0.98-0.91-1.92-1.48-2.82
		c-0.32-2.99-0.05-6.02,0.81-8.91c0.03-0.11-0.13-0.17-0.16-0.06c-0.83,2.81-1.12,5.75-0.85,8.66c-0.03-0.05-0.06-0.09-0.09-0.14
		c0.04-0.02,0.06-0.06,0.04-0.11c-0.28-0.59-0.47-1.2-0.6-1.81c0.14-3.09,0.59-6.17,1.39-9.16c0.38-1.44,0.99-2.87,1.14-4.36
		c0.14-1.31-0.09-2.63-0.27-3.92c-0.22-1.56-0.38-3.18,0.25-4.67c0.02-0.05-0.06-0.08-0.08-0.03c-1.09,2.55,0.1,5.3,0.05,7.93
		c-0.03,1.58-0.63,3.05-1.05,4.55c-0.42,1.49-0.75,3.01-1,4.54c-0.26,1.59-0.41,3.19-0.5,4.79c-0.49-2.86,0.38-5.87,0.64-8.74
		c0.02-0.05,0.03-0.1,0.05-0.16c0.02-0.05-0.06-0.08-0.08-0.03c0,0,0,0.01,0,0.01c-0.05-0.03-0.12-0.01-0.13,0.06
		c-0.02,0.18-0.03,0.36-0.05,0.54c-0.73,2.3-1.15,4.69-1.21,7.11c0,0.06,0.08,0.07,0.09,0.01c0.06-2.25,0.43-4.47,1.07-6.63
		c-0.41,3.21-1.3,6.56-0.03,9.65c-0.03-0.05-0.07-0.1-0.1-0.15c-0.38-0.78-0.76-1.56-1.1-2.36c-0.18-0.41-0.34-0.83-0.5-1.25
		c0,0,0,0,0-0.01c0.02-0.03,0-0.05-0.03-0.06c-0.07-0.18-0.13-0.37-0.2-0.55c0-0.07-0.01-0.14,0-0.22c0.01-0.37,0.05-0.74,0.1-1.11
		c0.12-0.83,0.31-1.64,0.49-2.45c0.37-1.66,0.75-3.33,1.12-4.99c0.01-0.05-0.07-0.06-0.09-0.01c-0.37,1.66-0.75,3.33-1.12,4.99
		c-0.26,1.18-0.55,2.37-0.59,3.57c-0.18-0.51-0.36-1.02-0.53-1.54c-0.01-1.29,0.12-2.58,0.4-3.85c0.15-0.7,0.36-1.38,0.59-2.06
		c0.18-0.53,0.32-1.05,0.25-1.61c-0.01-0.06-0.09-0.04-0.09,0.01c0.09,0.73-0.2,1.39-0.42,2.07c-0.18,0.57-0.34,1.14-0.46,1.73
		c-0.24,1.14-0.36,2.3-0.37,3.46c-0.14-0.42-0.28-0.84-0.42-1.26c0.02,0.05,0.1,0.02,0.08-0.04c-0.38-0.98-0.02-2.14,0.2-3.12
		c0.23-1.02,0.52-2.04,0.85-3.03c0.02-0.05-0.06-0.08-0.08-0.03c-0.35,1.06-0.65,2.13-0.89,3.21c-0.21,0.95-0.53,2.03-0.17,2.98
		c-0.21-0.63-0.43-1.26-0.67-1.89c-0.05-1.59,0.33-3.14,1.09-4.54c0.03-0.05-0.05-0.08-0.08-0.03c-0.74,1.34-1.1,2.84-1.09,4.37
		c-0.17-0.45-0.36-0.9-0.55-1.34c0.02-0.39,0.25-0.77,0.4-1.12c0.18-0.42,0.35-0.85,0.5-1.28c0.28-0.8,0.49-1.62,0.65-2.44
		c0.01-0.05-0.07-0.06-0.09-0.01c-0.19,0.97-0.45,1.93-0.8,2.85c-0.16,0.43-0.34,0.85-0.53,1.27c-0.09,0.19-0.17,0.38-0.21,0.57
		c-0.11-0.25-0.22-0.5-0.35-0.75c-0.04-0.08-0.09-0.17-0.13-0.25C40.81,20.96,40.84,20.91,40.83,20.84z M48,34.65
		c0.01,0.07,0.09,0.08,0.14,0.05c-0.05,0.15-0.1,0.29-0.14,0.44C48,34.98,48,34.82,48,34.65z M47.66,26.52
		c0.01-1.13,0.15-2.25,0.66-3.22C48.11,24.38,47.89,25.45,47.66,26.52z M36.64,20.84c0.2-1.4,0.17-3.08-0.2-4.65
		c1.51,1.2,2.8,2.64,3.76,4.38c1.57,2.83,2.33,6,3.46,9.01c0.01,0.06,0.01,0.13,0.01,0.19c0,0.03,0.05,0.04,0.07,0.02
		c0.07,0.19,0.14,0.38,0.22,0.57c0.22,0.54,0.46,1.06,0.7,1.59c-0.48-0.58-0.98-1.14-1.5-1.67c-1.32-1.34-2.69-2.64-3.73-4.22
		c-1.25-1.88-1.78-3.88-2.28-6.05c-0.03-0.12-0.19-0.09-0.19,0.03c0.12,3.66,2.28,6.93,4.73,9.48c1.32,1.37,2.69,2.68,3.72,4.29
		c0.46,0.71,0.82,1.45,1.16,2.2c-0.52-0.55-1.05-1.1-1.54-1.64c-1.25-1.38-2.5-2.76-3.76-4.14c-1.1-1.2-2.33-2.37-3.28-3.69
		c-1.17-1.63-1.29-3.39-1.64-5.27C36.51,21.18,36.61,21.04,36.64,20.84z M18.03,23.99c0.72,0.11,1.38,0.77,1.87,1.25
		c0.04,0.04,0.11-0.02,0.07-0.05c-0.54-0.51-1.23-1.22-2.01-1.29c-0.18-0.24-0.35-0.49-0.53-0.73c0.49,0.21,0.96,0.44,1.41,0.72
		c0.05,0.03,0.1-0.04,0.05-0.07c-0.5-0.31-1.02-0.56-1.56-0.78c-0.1-0.13-0.19-0.27-0.29-0.4c0.49,0.18,0.95,0.41,1.37,0.74
		c0.04,0.03,0.09-0.04,0.05-0.07c-0.46-0.36-0.97-0.6-1.51-0.79c-0.12-0.17-0.25-0.34-0.37-0.51c-0.04-0.05-0.07-0.11-0.11-0.16
		c0.7,0.26,1.36,0.61,1.95,1.08c0.04,0.03,0.09-0.03,0.05-0.07c-0.63-0.5-1.33-0.87-2.08-1.13c-0.08-0.12-0.16-0.24-0.24-0.36
		c0.67,0.19,1.28,0.51,1.82,0.97c0.04,0.04,0.09-0.03,0.05-0.07c-0.57-0.48-1.22-0.81-1.94-1c-0.07-0.12-0.14-0.24-0.21-0.36
		c0.5,0.2,0.98,0.44,1.43,0.73c0.05,0.03,0.1-0.04,0.05-0.07c-0.49-0.31-1.01-0.56-1.54-0.78c-0.09-0.19-0.16-0.39-0.2-0.59
		c0.63,0.27,1.23,0.59,1.79,0.99c0.04,0.03,0.1-0.04,0.05-0.07c-0.58-0.42-1.21-0.75-1.86-1.03c-0.01-0.07-0.01-0.15-0.02-0.22
		c0.65,0.29,1.23,0.68,1.75,1.16c0.04,0.04,0.09-0.03,0.05-0.07c-0.54-0.5-1.14-0.89-1.81-1.19c0-0.16,0.02-0.31,0.08-0.47
		c0.15-0.4,0.46-0.67,0.81-0.89c0.06,0.11,0.05,0.1,0.18,0.16c0.03,0.01,0.05-0.01,0.05-0.04c0.02,0.01,0.03,0.01,0.06,0.03
		c0.13,0.07,0.27,0.15,0.4,0.23c0.18,0.11,0.36,0.22,0.53,0.33c0.35,0.23,0.69,0.48,1.02,0.73c0.04,0.03,0.09-0.03,0.05-0.07
		c-0.69-0.55-1.43-1.02-2.22-1.43c0.12-0.07,0.24-0.13,0.36-0.19c0.47-0.23,0.98-0.41,1.46-0.64c1.3,0.29,2.13,1.37,2.94,2.34
		c0.35,0.43,0.72,0.85,1.15,1.2c0.52,0.43,1.11,0.76,1.69,1.09c0.05,0.03,0.1-0.04,0.05-0.07c-0.63-0.36-1.26-0.71-1.81-1.19
		c-0.53-0.46-0.95-1.01-1.39-1.55c-0.68-0.82-1.46-1.61-2.51-1.88c0.26-0.13,0.5-0.28,0.72-0.47c0.78,0.59,1.51,1.23,2.18,1.92
		c0.04,0.04,0.11-0.01,0.07-0.05c-0.68-0.7-1.41-1.34-2.18-1.92c0.05-0.04,0.1-0.07,0.14-0.11c0.04-0.04,0.07-0.08,0.11-0.13
		c1.93,0.57,2.71,3.14,4.86,3.24c0.05,0,0.07-0.08,0.01-0.09c-2.12-0.1-2.9-2.64-4.81-3.22c0.05-0.06,0.09-0.12,0.12-0.18
		c0.72,0.28,1.32,0.75,1.76,1.39c0.03,0.05,0.1-0.01,0.07-0.05c-0.44-0.65-1.05-1.12-1.78-1.41c0.08-0.14,0.14-0.3,0.19-0.46
		c0.56,0.23,1.06,0.54,1.53,0.93c0.04,0.04,0.09-0.03,0.05-0.07c-0.47-0.4-0.98-0.7-1.55-0.94c0-0.01,0.01-0.03,0.01-0.04
		c0.04-0.13,0.08-0.24,0.12-0.36c0.51,0.21,1.11,0.42,1.35,0.93c0.02,0.05,0.1,0.02,0.08-0.03c-0.25-0.55-0.87-0.77-1.4-0.98
		c0.02-0.07,0.05-0.15,0.08-0.22c0.54,0.14,0.94,0.58,1.43,0.83c0.05,0.03,0.08-0.05,0.03-0.08c-0.49-0.25-0.9-0.68-1.43-0.83
		c0.04-0.11,0.09-0.22,0.14-0.32c0.55,0.2,1.06,0.47,1.51,0.85c0.04,0.04,0.09-0.03,0.05-0.07c-0.46-0.38-0.97-0.66-1.53-0.86
		c0.03-0.06,0.07-0.12,0.1-0.18c0.46,0.19,0.87,0.44,1.24,0.78c0.04,0.04,0.09-0.03,0.05-0.07c-0.37-0.35-0.78-0.6-1.25-0.79
		c0.03-0.06,0.06-0.11,0.1-0.17c0.5,0.29,1.01,0.57,1.51,0.86c0.05,0.03,0.1-0.04,0.05-0.07c-0.51-0.29-1.01-0.58-1.52-0.86
		c0.07-0.11,0.16-0.22,0.25-0.32c0.47,0.26,0.92,0.56,1.35,0.9c0.04,0.03,0.09-0.03,0.05-0.07c-0.42-0.34-0.87-0.63-1.35-0.9
		c0.03-0.04,0.06-0.08,0.1-0.13c1.02-1.18,2.26-2.49,3.9-2.4c-0.05-0.01-0.07,0.06-0.03,0.08c0.71,0.32,1.3,0.78,1.79,1.39
		c0.03,0.04,0.1-0.01,0.07-0.05c-0.49-0.61-1.1-1.09-1.81-1.41c0.14,0.01,0.29,0.01,0.44,0.04c1.48,0.32,2.97,0.9,4.39,1.42
		c0.94,0.35,1.87,0.73,2.78,1.16c0.23,0.53,0.5,1.2,0.41,1.57c-0.19,0.72,0.74,1.11,1.08,0.43c0.16-0.32,0.17-0.74,0.08-1.19
		c0.21,0.12,0.41,0.24,0.61,0.37c0.21,0.49,0.39,0.99,0.52,1.54c0.27,1.18,0.34,2.35,0.24,3.55c-0.1,0.28-0.1,0.44-0.06,0.76
		c0.05,0.36,0.36,0.52,0.65,0.48c-0.01,1.48,0.23,3.06,0.89,4.38c0.77,1.55,2.09,2.82,3.22,4.1c1.39,1.58,2.78,3.16,4.18,4.73
		c0.99,1.11,1.94,2.36,3.01,3.43c0.07,0.17,0.15,0.34,0.23,0.51c-0.81-0.79-1.78-1.46-2.61-2.16c-1.37-1.14-2.68-2.35-3.93-3.62
		c-2.4-2.45-4.35-5.15-6.41-7.87c-0.05-0.07-0.18,0-0.14,0.08c1.59,2.96,3.86,5.67,6.17,8.09c0.91,0.96,1.87,1.88,2.86,2.77
		c-1.3-0.84-2.66-1.59-4-2.36c-0.53-0.7-1.02-1.44-1.52-2.22c-1.18-1.84-2.64-3.41-4.1-5.01c-1.53-1.67-2.82-3.38-3.98-5.32
		c-0.06-0.09-0.19-0.04-0.16,0.07c0.72,2.04,2.27,3.76,3.69,5.36c1.59,1.79,3.15,3.56,4.42,5.6c0.19,0.31,0.38,0.6,0.58,0.9
		c-1.45-0.85-2.86-1.76-4.14-2.86c-1.51-1.28-2.45-2.76-3.5-4.38c0.07-0.01,0.13-0.03,0.2-0.06c0.24-0.09,0.36-0.48,0.16-0.67
		c-0.55-0.55-1.12-0.93-1.59-1.57c-0.58-0.78-1.16-1.57-1.76-2.34c0.18,0.08,0.38,0.11,0.57,0.06c0.13-0.03,0.28-0.14,0.28-0.29
		c0.01-0.52-0.18-0.61-0.54-0.97c-0.45-0.44-0.84-0.95-1.13-1.51c-0.37-0.7-0.57-1.96-1.49-2.1c-0.09-0.01-0.18,0.06-0.18,0.14
		c-0.09,0.92,0.54,2.19,1,2.96c0.05,0.08,0.1,0.17,0.16,0.27c-0.31-0.2-0.59-0.22-0.66,0.26c-0.01,0.08,0.04,0.17,0.11,0.22
		c-0.03,0.05,0.07,0.19,0.3,0.42c0.02,0.03,0.04,0.07,0.06,0.1c0.25,0.41,0.5,0.8,0.77,1.19c0.53,0.78,1.07,1.56,1.62,2.32
		c0.46,0.64,1.03,1.56,1.84,1.59c0.91,3.3,4.62,5.76,7.35,7.41c0.42,0.26,0.85,0.51,1.27,0.75c0.89,1.18,1.89,2.24,3.15,3.14
		c1.55,1.11,3.31,2.06,5.1,2.8c0.15,0.14,0.31,0.27,0.46,0.41c0.1,0.08,0.24-0.01,0.25-0.12c0.02,0.01,0.04,0.01,0.05,0.02
		c0.11,0.33,0.21,0.66,0.31,0.99c-0.2-0.04-0.4-0.07-0.6-0.11c-0.02-0.03-0.05-0.05-0.09-0.05c-2.38-1.61-4.81-3.65-7.65-4.31
		c-3.25-3.24-8.38-3.26-11.71-6.39c-0.04-0.04-0.09,0.03-0.05,0.07c3.28,3.09,8.34,3.14,11.58,6.27c-0.03-0.01-0.07-0.02-0.1-0.03
		c-3.08-0.61-6.21-0.16-9.22-1.27c-3-1.1-5.58-3.12-7.77-5.41C21.17,27.98,19.54,26.01,18.03,23.99z M45.85,38.3
		c-1.1-0.54-2.18-1.11-3.2-1.82c-0.84-0.59-1.55-1.25-2.18-1.96c0.87,0.5,1.74,1.01,2.58,1.56C44.08,36.74,44.97,37.51,45.85,38.3z
		 M7.59,31.39c0.67,0.14,1.28,0.44,1.82,0.86c-0.46-0.2-0.93-0.38-1.41-0.51c-0.22-0.06-0.45-0.11-0.67-0.15
		C7.42,31.53,7.5,31.46,7.59,31.39z M1.89,39.44c0.05-0.11,0.11-0.22,0.16-0.33c0.65-0.46,1.52-0.4,2.23-0.75
		c0.05-0.02,0.02-0.1-0.03-0.08c-0.67,0.33-1.48,0.29-2.12,0.67c0.06-0.13,0.13-0.26,0.19-0.39c0.66-0.25,1.35-0.37,2.07-0.35
		c0.06,0,0.07-0.08,0.01-0.09c-0.7-0.02-1.37,0.09-2.02,0.32c0.06-0.13,0.13-0.26,0.19-0.39c0.5-0.12,1-0.2,1.51-0.2
		c0.37,0,0.71,0.05,1.04-0.14c0.05-0.03,0.01-0.11-0.03-0.08c-0.4,0.23-0.89,0.12-1.34,0.14c-0.38,0.02-0.75,0.09-1.12,0.18
		c0.05-0.1,0.11-0.21,0.16-0.31c0.76,0.04,1.53,0.02,2.29-0.04c0.06,0,0.04-0.09-0.01-0.08c-0.74,0.06-1.49,0.07-2.23,0.04
		c0.06-0.13,0.13-0.25,0.19-0.38c0.78-0.05,1.56-0.1,2.35-0.16c0.06,0,0.04-0.09-0.01-0.09C4.59,37,3.83,37.05,3.07,37.1
		c0.07-0.13,0.14-0.26,0.21-0.38c0.85-0.11,1.69-0.16,2.55-0.12c0.06,0,0.07-0.08,0.01-0.09C5,36.47,4.16,36.52,3.33,36.62
		c0.08-0.14,0.16-0.28,0.24-0.42c0,0.01-0.01,0.02-0.01,0.03c0.01,0.01,0.01,0.02,0.02,0.03c0.01,0.02,0.03,0.03,0.06,0.02
		c0.01,0,0.02-0.01,0.03-0.01c0.05-0.02,0.02-0.09-0.03-0.08c0.24-0.08,0.61-0.05,0.87-0.06c0.38-0.02,0.77,0,1.15,0.03
		c0.06,0,0.07-0.08,0.01-0.09c-0.42-0.03-0.84-0.05-1.25-0.02c-0.21,0.01-0.66-0.03-0.83,0.12c0.16-0.28,0.33-0.56,0.5-0.83
		c0.74-0.05,1.46,0.02,2.18,0.21c0.05,0.01,0.09-0.07,0.03-0.08c-0.71-0.19-1.42-0.26-2.15-0.22c0.08-0.12,0.16-0.25,0.24-0.37
		c0.66-0.04,1.31,0,1.96,0.15c0.05,0.01,0.06-0.07,0.01-0.09c-0.63-0.14-1.27-0.18-1.92-0.15c0.2-0.3,0.42-0.59,0.64-0.88
		c0.82,0.2,1.64,0.41,2.47,0.61c0.05,0.01,0.06-0.07,0.01-0.09c-0.81-0.2-1.61-0.4-2.42-0.6c0.14-0.18,0.27-0.36,0.42-0.53
		c0.75,0.23,1.47,0.5,2.18,0.83c0.05,0.02,0.08-0.06,0.03-0.08c-0.7-0.33-1.41-0.6-2.15-0.82c0.1-0.12,0.21-0.23,0.32-0.34
		c0.75,0.17,1.47,0.41,2.16,0.76c0.05,0.03,0.08-0.06,0.03-0.08C7.45,33.24,6.74,33,6,32.83c0.08-0.09,0.16-0.18,0.25-0.27
		c0.68,0.19,1.33,0.44,1.96,0.76c0.05,0.02,0.08-0.06,0.03-0.08c-0.62-0.31-1.26-0.55-1.92-0.74c0.04-0.04,0.08-0.09,0.12-0.13
		c0.72,0.31,1.45,0.61,2.17,0.92c0.05,0.02,0.08-0.06,0.03-0.08c-0.71-0.3-1.42-0.6-2.13-0.9c0.08-0.08,0.17-0.14,0.25-0.21
		c0.02,0.05,0.05,0.1,0.07,0.15c0.02,0.05,0.1,0.01,0.08-0.03c-0.11-0.21,0.21,0.03,0.32,0.07c0.21,0.09,0.42,0.19,0.63,0.28
		c0.42,0.19,0.84,0.38,1.25,0.56c0.05,0.02,0.08-0.06,0.03-0.08c-0.62-0.28-1.23-0.55-1.85-0.83c0.59,0.17,1.17,0.38,1.73,0.64
		c0.05,0.02,0.08-0.06,0.03-0.08c-0.7-0.33-1.43-0.59-2.18-0.78c0.12-0.11,0.24-0.21,0.37-0.31c0.37,0.08,0.74,0.14,1.1,0.25
		c0.46,0.14,0.91,0.32,1.34,0.53c0.05,0.02,0.08-0.06,0.03-0.08c0,0-0.01,0-0.02-0.01c0,0,0-0.01,0-0.01
		c-0.58-0.52-1.25-0.86-2-1.03c0.19-0.13,0.39-0.26,0.59-0.38c0.67,0.24,1.3,0.56,1.89,0.97c0.05,0.03,0.1-0.04,0.05-0.07
		c-0.58-0.4-1.2-0.71-1.85-0.95c0.11-0.06,0.2-0.14,0.31-0.2c0.02-0.01,0.03-0.01,0.05-0.02c0.82,0.32,1.57,0.76,2.25,1.31
		c0.04,0.04,0.09-0.03,0.05-0.07c-0.67-0.55-1.4-0.97-2.2-1.29c0.18-0.09,0.36-0.19,0.55-0.27c0.78,0.35,1.54,0.74,2.26,1.18
		c0.05,0.03,0.1-0.04,0.05-0.07c-0.71-0.43-1.45-0.82-2.21-1.16c1.77-0.76,3.73-0.99,5.65-1.07c2.34-0.1,4.69,0.02,7.02,0.32
		c0.05,0.01,0.09-0.01,0.11-0.03c1.46,1.58,3.06,3.03,4.87,4.2c1.41,0.91,2.94,1.65,4.57,2.1c1.7,0.47,3.44,0.53,5.19,0.61
		c1.91,0.09,3.8,0.3,5.51,1.21c1.74,0.93,3.36,2.14,4.99,3.25c-0.64,0.09-1.29,0.1-1.94,0.07c-0.88-0.25-1.76-0.5-2.64-0.75
		c-0.91-0.26-1.83-0.6-2.78-0.63c-0.11,0-0.13,0.17-0.02,0.17c0.99,0.03,1.96,0.39,2.9,0.66c0.57,0.16,1.13,0.32,1.7,0.48
		c-1.6-0.16-3.2-0.54-4.71-0.85c-2.4-0.49-4.92-1.18-7.39-1.04c-1.91,0.11-3.85,0.7-5.71,1.11c-1.23,0.26-2.48,0.49-3.65,0.95
		C16.06,41.01,8.87,36.71,1.89,39.44z M43,43.77c-1.27,0.94-2.45,1.96-3.83,2.76c-1.32,0.76-2.73,1.37-4.19,1.82
		c-3.09,0.94-6.49,0.8-9.41,2.3c-2.57,1.32-4.48,3.56-6.76,5.29c-1.31,0.99-2.79,1.87-4.42,2.21c-0.37,0.08-0.75,0.13-1.13,0.14
		c-0.37,0.02-0.65,0.06-0.81-0.14c0.42-0.3,0.88-0.5,1.39-0.59c0.05-0.01,0.04-0.1-0.01-0.09c-0.52,0.1-0.99,0.3-1.42,0.61
		c-0.03-0.05-0.05-0.11-0.06-0.19c-0.02-0.07-0.02-0.15-0.03-0.22c0.31-0.3,0.64-0.57,1.01-0.81c0.05-0.03-0.01-0.1-0.05-0.07
		c-0.35,0.22-0.67,0.48-0.97,0.77c-0.02-0.12-0.03-0.24-0.04-0.37c0.01,0,0.02,0.01,0.03,0c0.42-0.39,0.84-0.77,1.27-1.16
		c0.04-0.04-0.01-0.1-0.05-0.07c-0.42,0.38-0.83,0.76-1.25,1.14c0-0.08,0-0.16,0-0.25c0.04,0.01,0.08-0.04,0.04-0.07
		c-0.25-0.19,1.33-1.41,1.5-1.52c0.05-0.03-0.01-0.1-0.05-0.07c-0.17,0.11-1.2,0.85-1.48,1.33c0.01-0.2,0.02-0.4,0.04-0.6
		c0.43-0.55,0.93-1.05,1.5-1.46c0.04-0.03-0.01-0.1-0.05-0.07c-0.54,0.39-1.01,0.86-1.43,1.38c0.01-0.11,0.02-0.23,0.03-0.33
		c0.01-0.08,0.02-0.15,0.03-0.23c0.4-0.38,0.8-0.77,1.21-1.15c0.04-0.04-0.01-0.11-0.05-0.07c-0.38,0.36-0.75,0.72-1.13,1.08
		c0.02-0.12,0.03-0.25,0.05-0.37c0.45-0.5,0.93-0.97,1.43-1.42c0.04-0.04-0.01-0.1-0.05-0.07c-0.48,0.42-0.92,0.88-1.36,1.35
		c0.04-0.24,0.09-0.49,0.15-0.73c0.37-0.52,0.81-0.94,1.36-1.27c0.05-0.03,0.01-0.11-0.03-0.08c-0.51,0.31-0.92,0.7-1.28,1.17
		c0.05-0.22,0.11-0.44,0.17-0.66c0.45-0.44,0.93-0.84,1.47-1.17c0.05-0.03,0.01-0.11-0.03-0.08c-0.5,0.31-0.95,0.68-1.38,1.08
		c0.07-0.23,0.14-0.47,0.23-0.7c0.93-0.54,1.87-1.07,2.82-1.59c0.05-0.03,0.01-0.1-0.03-0.08c-0.92,0.5-1.83,1.01-2.73,1.54
		c0.08-0.22,0.17-0.43,0.27-0.64c0.24-0.27,0.74-0.46,1.02-0.59c0.38-0.18,0.78-0.33,1.18-0.46c0.05-0.02,0.02-0.1-0.03-0.08
		c-0.53,0.17-1.05,0.38-1.54,0.64c-0.16,0.09-0.38,0.19-0.56,0.31c0.07-0.16,0.15-0.31,0.22-0.46c0.4-0.25,0.82-0.48,1.25-0.65
		c0.4-0.16,0.84-0.26,1.22-0.47c0.05-0.03,0.01-0.11-0.03-0.08c-0.42,0.23-0.91,0.33-1.36,0.52c-0.35,0.15-0.68,0.34-1.01,0.53
		c0.09-0.18,0.17-0.35,0.27-0.53c0.58-0.35,1.22-0.56,1.92-0.61c0.06,0,0.04-0.09-0.01-0.09c-0.65,0.04-1.25,0.23-1.81,0.54
		c0.21-0.37,0.43-0.73,0.66-1.08c0.86-0.33,1.76-0.44,2.68-0.33c0.06,0.01,0.07-0.08,0.01-0.09c-0.89-0.1-1.77,0-2.61,0.3
		c0.13-0.2,0.26-0.39,0.4-0.59c0,0,0,0,0,0c0,0.01,0,0.03,0.02,0.04c0.24,0.14,0.65-0.03,0.9-0.07c0.51-0.09,1.02-0.19,1.53-0.3
		c0.05-0.01,0.04-0.1-0.01-0.09c-0.19,0.04-2.35,0.44-2.35,0.38c0-0.01-0.01-0.01-0.01-0.01c0.72-0.6,1.92-0.55,2.8-0.65
		c0.06-0.01,0.04-0.09-0.01-0.09c-0.86,0.1-1.96,0.06-2.7,0.57c0.14-0.18,0.28-0.37,0.42-0.54c0.85-0.25,1.7-0.45,2.58-0.59
		c0.05-0.01,0.04-0.09-0.01-0.09c-0.84,0.14-1.66,0.33-2.48,0.56c0.16-0.19,0.32-0.37,0.48-0.55c0.87-0.11,1.73-0.22,2.6-0.33
		c0.05-0.01,0.04-0.09-0.01-0.09c-0.83,0.11-1.67,0.21-2.5,0.32c0.12-0.13,0.24-0.27,0.36-0.4c0.87-0.13,1.74-0.26,2.61-0.39
		c0.05-0.01,0.04-0.09-0.01-0.09c-0.83,0.13-1.67,0.25-2.5,0.38c0.12-0.12,0.23-0.24,0.35-0.36c0.01,0.02,0.02,0.04,0.04,0.04
		c0.79-0.02,1.57-0.11,2.35-0.25c0.05-0.01,0.04-0.09-0.01-0.09c-0.77,0.14-1.55,0.22-2.33,0.24c0.12-0.12,0.24-0.24,0.37-0.36
		c0.01,0,0.03,0,0.04,0c0.02,0,0.03-0.02,0.03-0.03c0.03,0.03,0.08,0.03,0.15-0.02c0.11-0.02,0.21-0.04,0.32-0.06
		c0.21-0.04,0.43-0.08,0.64-0.12c0.43-0.08,0.86-0.16,1.29-0.24c0.05-0.01,0.04-0.1-0.01-0.09c-0.78,0.14-1.55,0.29-2.33,0.43
		c0.2-0.19,0.39-0.37,0.59-0.55c0.01,0.01,0.01,0.03,0.03,0.02c0.8-0.17,1.58-0.41,2.34-0.73c0.05-0.02,0.02-0.1-0.04-0.08
		c-0.73,0.31-1.47,0.54-2.25,0.71c0.22-0.19,0.44-0.39,0.66-0.57c0.73-0.06,1.43-0.23,2.11-0.51c0.05-0.02,0.02-0.1-0.03-0.08
		c-0.63,0.26-1.29,0.42-1.96,0.49c0.26-0.21,0.52-0.43,0.78-0.64c0.87-0.18,1.75-0.28,2.63-0.3c0.06,0,0.04-0.09-0.01-0.09
		c-0.84,0.02-1.66,0.12-2.48,0.27c0.39-0.31,0.8-0.6,1.21-0.88c0,0.02,0.02,0.04,0.04,0.04c0.77-0.1,1.55-0.12,2.32-0.06
		c0.06,0,0.07-0.08,0.01-0.09c-0.77-0.06-1.54-0.04-2.31,0.05c0.25-0.17,0.51-0.32,0.77-0.46c0,0.01,0.01,0.03,0.03,0.03
		c0.86,0.03,1.72,0,2.58-0.01c0.05,0,0.07-0.09,0.01-0.09c-0.83,0.01-1.67,0.04-2.51,0.01c0.24-0.13,0.47-0.26,0.72-0.36
		c0.05,0,0.1,0,0.15,0c0.08,0,0.12-0.05,0.15-0.11c0.37-0.07,2.22,0.2,2.4,0.23c0.05,0.01,0.07-0.08,0.01-0.09
		c-0.65-0.08-1.29-0.16-1.94-0.22c-0.04,0-0.1-0.02-0.17-0.03c0.6-0.21,1.22-0.37,1.85-0.51c0,0.01,0,0.02,0.01,0.02
		c0.64,0.18,1.28,0.34,1.93,0.48c0.05,0.01,0.06-0.07,0.01-0.09c-0.61-0.13-1.21-0.28-1.81-0.45c0.77-0.17,1.55-0.31,2.31-0.47
		c1.59-0.34,3.24-0.84,4.88-0.85c1.01,0,2.01,0.11,3.02,0.27c-0.6,0.11-1.2,0.22-1.81,0.29c-0.6,0.07-1.2,0.05-1.8,0.12
		c-1.14,0.13-2.24,0.8-3.27,1.26c-0.05,0.02-0.02,0.1,0.03,0.08c1.08-0.48,2.21-1.17,3.4-1.27c0.58-0.05,1.15-0.04,1.73-0.11
		c0.6-0.07,1.18-0.18,1.77-0.29c0.04-0.01,0.03-0.04,0.01-0.07c1.5,0.25,2.98,0.61,4.44,0.9c0.8,0.16,1.63,0.34,2.47,0.48
		c-4.57,0.48-9.32,1.14-13.15,3.86c-0.09,0.06,0.02,0.2,0.11,0.13c3.98-2.82,8.97-3.41,13.7-3.89c1.38,0.21,2.78,0.3,4.13,0.07
		c0,0,0.01,0.01,0.01,0.01c0.02,0.01,0.04,0.02,0.06,0.02c0,0,0.01,0,0.01,0c0.25,0.05,0.5,0.09,0.75,0.14
		c-0.03,0.25-0.01,0.52-0.09,0.75c-0.11,0.32-0.28,0.32-0.65,0.37c-0.48,0.07-0.98,0.01-1.47,0.01C45.09,42.48,44.01,43.02,43,43.77
		z M65.56,41.97c0.48,1.33,0.98,2.68,1.43,4.04c-0.4-0.55-0.9-1.14-1.53-1.26c-0.05-0.01-0.06,0.08-0.01,0.09
		c0.68,0.12,1.22,0.86,1.63,1.44c0.21,0.65,0.42,1.31,0.6,1.97c-0.48-0.61-0.99-1.2-1.51-1.77c-0.04-0.04-0.1,0.01-0.07,0.05
		c0.54,0.58,1.06,1.19,1.55,1.81c0.02,0.02,0.04,0.02,0.06,0.01c0.05,0.19,0.11,0.38,0.16,0.58c-0.37-0.47-0.79-0.88-1.28-1.24
		c-0.04-0.03-0.1,0.04-0.05,0.07c0.53,0.39,0.99,0.84,1.38,1.37c0.08,0.33,0.17,0.65,0.24,0.98c-0.41-0.67-0.91-1.27-1.53-1.76
		c-0.04-0.03-0.09,0.03-0.05,0.07c0.63,0.51,1.15,1.11,1.56,1.82c0.01,0.02,0.03,0.01,0.04,0.01c0.04,0.2,0.08,0.4,0.11,0.6
		c-0.39-0.63-0.85-1.21-1.39-1.72c-0.04-0.04-0.09,0.03-0.05,0.07c0.54,0.52,1,1.09,1.39,1.73c0.02,0.03,0.05,0.02,0.06,0.01
		c0.03,0.15,0.06,0.31,0.09,0.46c-0.52-0.52-1.06-1.02-1.52-1.59c-0.03-0.04-0.1,0.01-0.07,0.05c0.48,0.6,1.07,1.13,1.61,1.68
		c0.07,0.46,0.13,0.91,0.17,1.37c0.02,0.27,0.04,0.58,0.01,0.89c-0.27-0.47-0.6-0.89-1-1.27c-0.04-0.04-0.09,0.03-0.05,0.07
		c0.4,0.38,0.73,0.8,1,1.28c0.01,0.02,0.03,0.01,0.04,0.01c-0.01,0.12-0.03,0.23-0.06,0.34c-0.34-0.51-0.68-1.02-1.02-1.53
		c-0.03-0.05-0.1,0.01-0.07,0.05c0.35,0.53,0.7,1.06,1.06,1.59c-0.04,0.13-0.09,0.25-0.16,0.37c-0.03-0.04-0.1,0.01-0.07,0.05
		c-0.12-0.01-0.2-0.07-0.23-0.19c-0.06-0.09-0.12-0.19-0.18-0.28c-0.09-0.14-0.18-0.28-0.27-0.42c-0.21-0.33-0.42-0.66-0.63-0.99
		c-0.44-0.68-0.87-1.37-1.31-2.05c-0.71-1.11-1.42-2.24-2.5-3.04c-0.04-0.03-0.1,0.04-0.05,0.07c1.46,1.07,2.34,2.8,3.29,4.29
		c0.53,0.82,1.04,1.66,1.58,2.47c0.05,0.07,0.13,0.24,0.24,0.27c-0.05,0.06-0.1,0.12-0.16,0.17c-0.26,0.22-0.6,0.29-0.96,0.29
		c0.02-0.01,0.02-0.04,0.01-0.06c-0.46-0.68-0.75-1.44-1.24-2.1c-0.44-0.58-0.95-1.09-1.47-1.59c-1.17-1.1-2.45-2.12-3.28-3.52
		c-0.03-0.05-0.11-0.01-0.08,0.03c0.77,1.3,1.92,2.27,3.02,3.28c0.59,0.54,1.17,1.1,1.67,1.74c0.53,0.69,0.84,1.49,1.32,2.2
		c0.01,0.02,0.03,0.01,0.05,0.01c-0.18,0-0.36-0.02-0.55-0.05c-0.36-0.63-0.76-1.23-1.18-1.82c-0.03-0.04-0.1,0.01-0.07,0.05
		c0.41,0.56,0.79,1.14,1.13,1.74c-0.19-0.04-0.39-0.09-0.57-0.15c-0.28-0.64-0.61-1.24-1-1.82c-0.03-0.05-0.1,0.01-0.07,0.05
		c0.37,0.55,0.68,1.13,0.95,1.73c-0.16-0.05-0.3-0.1-0.44-0.15c-0.39-0.65-0.79-1.3-1.18-1.95c-0.03-0.05-0.11-0.01-0.08,0.03
		c0.38,0.62,0.75,1.25,1.13,1.87c-0.02-0.01-0.05-0.02-0.07-0.03c-0.77-0.28-1.49-0.65-2.2-1.06c-0.37-0.63-0.73-1.26-1.1-1.89
		c-0.03-0.05-0.11-0.01-0.08,0.03c0.34,0.59,0.68,1.17,1.02,1.76c-0.41-0.24-0.81-0.5-1.21-0.76c-0.29-0.68-0.65-1.32-1.08-1.92
		c-0.03-0.05-0.1,0.01-0.07,0.05c0.4,0.56,0.73,1.15,1.01,1.78c-0.11-0.07-0.22-0.14-0.33-0.22c-0.07-0.04-0.13-0.09-0.2-0.13
		c-0.24-0.54-0.51-1.05-0.84-1.54c-0.03-0.05-0.1,0.01-0.07,0.05c0.3,0.45,0.54,0.91,0.77,1.4c-0.12-0.08-0.24-0.16-0.36-0.24
		c-0.31-0.53-0.64-1.04-1.04-1.51c-0.04-0.04-0.1,0.01-0.07,0.05c0.36,0.42,0.67,0.87,0.95,1.34c-0.08-0.06-0.17-0.11-0.25-0.17
		c0-0.01,0.01-0.02,0.01-0.03c-0.48-0.66-0.98-1.29-1.51-1.91c-0.04-0.04-0.1,0.01-0.07,0.05c0.49,0.58,0.96,1.17,1.41,1.79
		c-0.26-0.17-0.53-0.35-0.8-0.51c-0.27-0.45-0.58-0.86-0.97-1.22c-0.04-0.04-0.09,0.03-0.05,0.07c0.34,0.31,0.61,0.67,0.85,1.05
		c-0.22-0.13-0.44-0.27-0.66-0.39c-0.26-0.38-0.55-0.74-0.86-1.09c-0.04-0.04-0.1,0.01-0.07,0.05c0.27,0.3,0.51,0.61,0.75,0.94
		c-0.14-0.08-0.28-0.16-0.42-0.23c-0.23-0.38-0.49-0.74-0.79-1.07c-0.04-0.04-0.1,0.01-0.07,0.05c0.27,0.29,0.5,0.6,0.7,0.93
		c-0.13-0.06-0.26-0.12-0.38-0.18c-0.23-0.35-0.51-0.66-0.84-0.92c-0.04-0.03-0.09,0.03-0.05,0.07c0.28,0.23,0.52,0.49,0.73,0.78
		c-1.28-0.6-2.64-1.04-4.01-1.39c-1.76-0.46-3.6-0.7-5.33-1.24c-0.92-0.29-1.92-0.8-2.09-1.86c-0.17-1.04,0.49-2.04,1.05-2.85
		c0.42,0,0.83,0.03,1.25-0.01c0.12-0.01,0.26-0.02,0.4-0.05c-0.03,0.03-0.03,0.09,0.01,0.12c1.33,0.95,2.49,2.11,3.44,3.44
		c0.06,0.09,0.2-0.02,0.14-0.11c-0.96-1.35-2.13-2.52-3.47-3.48c0,0-0.01,0-0.01,0c0.2-0.05,0.38-0.13,0.47-0.29
		c0.1-0.17,0.1-0.39,0.1-0.62c1.1,1.13,2.34,2.12,3.7,2.93c0.05,0.03,0.1-0.04,0.05-0.07c-1.38-0.83-2.63-1.83-3.75-2.98
		c0-0.15,0.01-0.29,0.05-0.41c0.02-0.05,0.01-0.09-0.02-0.13c0.01-0.21,0.04-0.44,0.08-0.68c1.8,0.56,3.35,1.88,4.88,2.94
		c0.05,0.03,0.1-0.04,0.05-0.07c-1.54-1.07-3.09-2.39-4.9-2.95c-0.01,0-0.01,0.01-0.02,0.01c0.15-0.85,0.51-1.79,1.32-1.98
		c0.57-0.14,1.11,0.13,1.66,0.26c0.2,0.05,0.4,0.07,0.6,0.08c0.8,0.5,1.61,1,2.41,1.51c0.54,0.34,1.16,0.86,1.84,0.71
		c0.05-0.01,0.04-0.1-0.01-0.09c-0.76,0.17-1.6-0.59-2.21-0.97c-0.62-0.39-1.24-0.77-1.86-1.16c0.28,0,0.56-0.04,0.84-0.11
		c0.39,0.32,0.82,0.56,1.26,0.8c0.6,0.33,1.15,0.71,1.7,1.11c0.87,0.63,1.79,1.24,2.89,1.35c0.06,0.01,0.07-0.08,0.01-0.09
		c-1.2-0.12-2.16-0.83-3.1-1.52c-0.85-0.61-1.85-1.04-2.66-1.69c0.23-0.06,0.46-0.14,0.68-0.24c-0.04,0-0.07,0.06-0.02,0.07
		c3.51,1.03,5.82,4.13,8.97,5.82c0.05,0.03,0.08-0.05,0.03-0.08c-3.14-1.7-5.46-4.79-8.96-5.82c0.58-0.26,1.12-0.61,1.65-0.97
		c1.66-0.01,2.73,1.59,4.26,2.01c0.05,0.01,0.09-0.07,0.03-0.08c-1.51-0.41-2.57-1.93-4.18-2c0.12-0.09,0.25-0.17,0.37-0.26
		c0.36-0.25,0.72-0.5,1.08-0.75c0.47-0.06,1.28,0.56,1.56,0.76c0.34,0.24,0.65,0.52,0.98,0.79c0.58,0.48,1.19,0.92,1.96,1.04
		c0.05,0.01,0.06-0.08,0.01-0.09c-1.04-0.16-1.78-0.94-2.57-1.57c-0.38-0.3-0.79-0.57-1.22-0.79c-0.18-0.09-0.39-0.21-0.59-0.23
		c0.2-0.14,0.4-0.28,0.6-0.41c1.6,0.56,2.64,2.01,4.13,2.76c0.05,0.02,0.08-0.06,0.03-0.08c-1.47-0.74-2.51-2.17-4.08-2.74
		c0.16-0.11,0.33-0.23,0.49-0.34C62.58,35.2,64.49,38.99,65.56,41.97z M79.62,25.36c0-0.02,0-0.04-0.02-0.05
		c-0.92-0.46-1.87-0.86-2.84-1.21c-0.05-0.02-0.08,0.06-0.03,0.08c0.9,0.32,1.78,0.69,2.64,1.11c-0.65-0.14-1.31-0.22-1.97-0.23
		c-0.83-0.68-1.99-0.82-2.96-0.32c-0.05,0.03-0.01,0.1,0.03,0.08c0.9-0.47,2-0.36,2.79,0.24c-0.73,0-1.45,0.06-2.17,0.22
		c-2.61,0.59-4.9,2.34-7.13,3.75c-2.5,1.59-4.98,3.21-7.44,4.87c-0.6,0.41-1.2,0.81-1.8,1.22c0,0-0.01,0-0.01,0
		c-0.06,0-0.1,0.04-0.11,0.08c-0.62,0.43-1.24,0.86-1.86,1.29c-1.2,0.84-2.53,1.96-4.08,1.95c-1.05-0.01-2.21-0.85-3.13,0.02
		c-0.53,0.5-0.79,1.27-0.9,2.01c-0.04-0.14-0.08-0.27-0.13-0.41c0.06-0.03,0.1-0.09,0.11-0.15c0.05-0.06,0.07-0.16,0.02-0.25
		c-0.02-0.03-0.04-0.06-0.06-0.09c-0.05-0.24-0.11-0.47-0.18-0.7c0,0,0,0,0.01,0.01c0.16,0.13,0.33-0.03,0.32-0.19
		c0.41-0.63,0.86-1.19,1.64-1.34c0.69-0.13,1.39-0.19,2.08-0.35c1.38-0.33,2.71-0.85,3.95-1.54c0.05-0.03,0.01-0.11-0.03-0.08
		c-1.42,0.79-2.96,1.36-4.55,1.66c-0.64,0.12-1.41,0.09-2.01,0.38c-0.49,0.24-0.81,0.69-1.11,1.14c-0.03-0.05-0.07-0.09-0.1-0.14
		c1.65-2.31,4.3-3.57,6.82-4.72c0.1-0.05,0.03-0.21-0.07-0.16c-2.53,1.16-5.18,2.42-6.85,4.73c-0.15-0.21-0.3-0.42-0.46-0.62
		c-0.01-0.58-0.02-1.16-0.03-1.74c0.42-2.39,2.04-4.37,3.57-6.18c0.07-0.09-0.07-0.19-0.14-0.1c-1.27,1.5-2.6,3.12-3.27,4.99
		c-0.06-0.46-0.11-0.91-0.16-1.37c0-0.01,0-0.02,0-0.02c0.56-1.43,1.51-2.54,2.68-3.55c1.06-0.9,2.17-1.78,2.83-3.03
		c0.03-0.05-0.05-0.08-0.08-0.03c-0.73,1.4-2.05,2.32-3.2,3.34c-0.96,0.86-1.72,1.85-2.22,3.02c0-0.18,0.01-0.36,0.01-0.54
		c0.01-0.32,0.03-0.63,0.05-0.94c0.92-1.12,1.86-2.22,2.83-3.28c0.52-0.56,1.07-1.01,1.68-1.45c0.45-0.32,0.86-0.67,1.11-1.17
		c0.02-0.05-0.06-0.08-0.08-0.03c-0.3,0.61-0.86,0.98-1.4,1.36c-0.56,0.39-1.03,0.85-1.49,1.36c-0.91,1-1.78,2.03-2.65,3.07
		c0.03-0.38,0.08-0.76,0.14-1.14c0.27-0.39,0.62-0.72,0.98-1.03c0.56-0.48,1.14-0.94,1.69-1.43c1.14-1.01,2.23-2.08,3.26-3.2
		c0.04-0.04-0.03-0.09-0.07-0.05c-1.14,1.23-2.34,2.4-3.61,3.5c-0.72,0.62-1.61,1.21-2.21,1.99c0.06-0.29,0.12-0.57,0.2-0.85
		c1.52-2.38,3.56-4.39,5.96-5.88c0.05-0.03-0.01-0.1-0.05-0.07c-2.32,1.44-4.3,3.36-5.81,5.63c0.19-0.58,0.43-1.14,0.76-1.7
		c0.99-1.68,2.08-3.41,3.33-4.98c-0.12,0.61-0.22,1.22-0.29,1.83c-0.01,0.06,0.08,0.07,0.09,0.01c0.07-0.64,0.17-1.27,0.3-1.9
		c0-0.02-0.01-0.03-0.03-0.03c0.31-0.39,0.63-0.77,0.97-1.13c0.02,0.59-0.05,1.16-0.19,1.73c-0.01,0.05,0.07,0.06,0.09,0.01
		c0.15-0.58,0.21-1.16,0.19-1.76c0-0.02-0.02-0.03-0.04-0.03c0.1-0.1,0.2-0.2,0.3-0.3c0,0,0.01,0,0.01,0
		c0.01-0.01,0.01-0.02,0.01-0.02c0.21-0.22,0.42-0.43,0.64-0.64c-0.09,0.16-0.07,0.44-0.11,0.6c-0.1,0.49-0.3,0.95-0.55,1.38
		c-0.03,0.05,0.04,0.1,0.07,0.05c0.19-0.32,0.35-0.65,0.46-1.01c0.04-0.13,0.08-0.27,0.11-0.41c0.02-0.09,0.01-0.56,0.06-0.61
		c-0.04,0.04,0.03,0.09,0.07,0.05c0.01-0.01,0.01-0.02,0.02-0.02c0.01-0.01,0.01-0.04,0-0.05c-0.01-0.01-0.02-0.02-0.03-0.03
		c-0.01-0.01-0.02,0-0.03,0c0.14-0.13,0.28-0.25,0.43-0.38c-0.01,0.68,0.06,1.34,0.23,2c0.01,0.05,0.1,0.04,0.09-0.01
		c0-0.01,0-0.02-0.01-0.03c0-0.01,0.02,0,0.02-0.01c0.02-0.79,0.13-1.57,0.36-2.33c0.02-0.05-0.06-0.09-0.08-0.03
		c-0.2,0.69-0.31,1.39-0.34,2.11c-0.12-0.57-0.19-1.14-0.18-1.72c0-0.01-0.01-0.01-0.02-0.02c0.09-0.08,0.18-0.17,0.28-0.25
		c0.44-0.36,0.91-0.68,1.39-0.98c-0.3,0.88-0.47,1.79-0.49,2.73c0,0.05,0.08,0.07,0.09,0.01c0.02-0.96,0.19-1.9,0.51-2.81
		c0.28-0.17,0.56-0.35,0.85-0.5c-0.35,0.68-0.65,1.38-0.88,2.1c-0.03,0.1-0.38,0.89-0.02,0.84c0.05-0.01,0.04-0.09-0.01-0.09
		c-0.13,0.02,0.14-0.82,0.16-0.87c0.08-0.24,0.17-0.48,0.26-0.71c0.18-0.46,0.39-0.9,0.62-1.34c0.21-0.11,0.42-0.21,0.63-0.32
		c-0.2,0.92-0.39,1.85-0.55,2.78c-0.01,0.05,0.08,0.06,0.09,0.01c0.16-0.95,0.35-1.89,0.56-2.84c0.15-0.07,0.3-0.15,0.45-0.21
		c-0.27,0.63-0.5,1.27-0.66,1.94c-0.03,0.15-0.33,0.93,0.03,0.92c0.06,0,0.04-0.09-0.01-0.09c-0.16,0.01,0.24-1.46,0.27-1.56
		c0.13-0.43,0.3-0.85,0.49-1.27c0.31-0.14,0.62-0.28,0.94-0.4c0.23-0.09,0.46-0.18,0.69-0.27c-0.39,0.86-0.61,1.78-0.64,2.73
		c0,0.05,0.08,0.07,0.09,0.01c0.03-0.97,0.25-1.9,0.66-2.78c0.84-0.32,1.7-0.61,2.56-0.87c-0.17,0.5-0.35,1-0.52,1.5
		c-0.13,0.4-0.24,0.79-0.16,1.21c0.01,0.05,0.09,0.04,0.09-0.01c-0.09-0.51,0.09-0.98,0.26-1.45c0.15-0.42,0.29-0.84,0.44-1.26
		c0-0.01-0.01-0.01-0.01-0.02c0.61-0.18,1.23-0.35,1.85-0.48c1.28-0.27,2.59-0.38,3.87-0.24c-0.54,0.9-1.07,1.81-1.61,2.71
		c-0.02,0.03-0.01,0.06,0.03,0.07c0.11,0.01,0.1,0.02,0.2-0.05c0.04-0.03-0.01-0.1-0.05-0.07c-0.01,0.01,0.09-0.22,0.11-0.25
		c0.07-0.12,0.14-0.23,0.21-0.35c0.14-0.23,0.28-0.47,0.42-0.7c0.27-0.45,0.53-0.9,0.8-1.35c0.22,0.03,0.44,0.06,0.66,0.1
		c0,0-0.01,0-0.01,0c-0.29,0.54-0.57,1.08-0.86,1.62c-0.16,0.3-0.49,0.68-0.38,1.04c0.01,0.02,0.03,0.03,0.05,0.03
		c0.1-0.02,0.08-0.01,0.16-0.08c0.04-0.04-0.01-0.1-0.05-0.07c-0.02-0.07-0.04-0.13-0.06-0.2c0.02-0.03,0.03-0.07,0.05-0.1
		c0.03-0.1,0.11-0.2,0.16-0.29c0.12-0.22,0.23-0.44,0.35-0.66c0.22-0.42,0.44-0.83,0.67-1.25c0.01-0.01-0.01-0.02-0.01-0.03
		c0.31,0.06,0.61,0.13,0.91,0.23c1.14,0.36,2.19,0.93,3.16,1.62c-0.38,0.32-0.68,0.75-0.99,1.13c-0.33,0.39-0.8,0.81-0.97,1.31
		c-0.02,0.05,0.06,0.08,0.08,0.03c0.15-0.48,0.64-0.91,0.95-1.29c0.31-0.38,0.61-0.81,0.99-1.12c0.26,0.19,0.52,0.38,0.78,0.58
		c1.39,1.13,2.62,2.46,3.74,3.84c1.23,1.52,2.31,3.17,2.8,5.07C81.05,25.79,80.34,25.54,79.62,25.36z"/>
	<path class="st0" d="M31.57,17.31c-0.04,0.62,0.21,1.08,0.38,1.69c0.23,0.79,0.32,1.61,0.52,2.41c0.28,1.15,0.87,2.38,1.78,3.14
		c0.2,0.16,0.56,0.12,0.7-0.11c0.01-0.01,0.01-0.02,0.02-0.03c0.12-0.2,0.1-0.42-0.01-0.58c-0.26-0.57-0.67-1.03-0.95-1.59
		c-0.36-0.71-0.52-1.48-0.71-2.25c-0.24-0.98-0.44-2.28-1.33-2.85C31.82,17.05,31.59,17.11,31.57,17.31z"/>
	<path class="st0" d="M28.34,17.39c0.14,0.03,0.27-0.07,0.33-0.19c0.35-0.71-0.41-1.66-0.69-2.32c-0.28-0.66-0.46-1.65-1.14-2
		c-0.06-0.03-0.16,0-0.19,0.05c-0.4,0.7,0.09,1.68,0.34,2.38C27.25,16.04,27.49,17.23,28.34,17.39z"/>
	<path class="st0" d="M54.21,42.02c0.11,0.02,0.13-0.15,0.02-0.17c-0.96-0.18-1.6-1.1-2.43-1.56c-0.77-0.44-1.62-0.67-2.5-0.7
		c-0.11,0-0.13,0.17-0.02,0.17c1.04,0.04,2.04,0.36,2.89,0.97C52.83,41.2,53.37,41.86,54.21,42.02z"/>
	<path class="st0" d="M49.98,21.41c-0.64,1.73-1.08,3.52-1.31,5.35c-0.01,0.05,0.08,0.07,0.09,0.01c0.23-1.82,0.67-3.61,1.31-5.33
		C50.08,21.39,50,21.36,49.98,21.41z"/>
	<path class="st0" d="M51.45,20.17c-0.33,1.22-0.53,2.46-0.61,3.73c0,0.06,0.08,0.07,0.09,0.01c0.08-1.25,0.28-2.49,0.6-3.7
		C51.54,20.15,51.46,20.12,51.45,20.17z"/>
	<path class="st0" d="M51.27,23.42c0.08-1.22,0.45-2.37,1.1-3.4c0.03-0.05-0.04-0.1-0.07-0.05c-0.66,1.05-1.03,2.21-1.11,3.45
		C51.18,23.46,51.26,23.48,51.27,23.42z"/>
	<path class="st0" d="M52.87,18.96c-0.3,1.19-0.69,2.35-1.19,3.47c-0.02,0.05,0.06,0.08,0.08,0.03c0.5-1.13,0.9-2.3,1.19-3.49
		C52.97,18.92,52.89,18.91,52.87,18.96z"/>
	<path class="st0" d="M53.5,18.52c-0.17,1.03-0.45,2.03-0.84,2.99c-0.02,0.05,0.06,0.08,0.08,0.03c0.39-0.98,0.67-1.98,0.84-3.02
		C53.6,18.47,53.51,18.46,53.5,18.52z"/>
	<path class="st0" d="M54.22,18.24c-0.23,0.77-0.45,1.55-0.64,2.33c-0.01,0.05,0.07,0.06,0.09,0.01c0.19-0.78,0.4-1.55,0.64-2.31
		C54.31,18.22,54.23,18.19,54.22,18.24z"/>
	<path class="st0" d="M23.19,42.69c-0.8-0.01-1.59,0.04-2.38,0.16c-0.05,0.01-0.04,0.09,0.01,0.09c0.78-0.11,1.57-0.17,2.36-0.16
		C23.24,42.78,23.25,42.69,23.19,42.69z"/>
	<path class="st0" d="M28.74,40.89c-0.66-0.15-1.32-0.3-1.97-0.46c-0.05-0.01-0.06,0.07-0.01,0.09c0.66,0.15,1.32,0.3,1.97,0.46
		C28.78,40.99,28.79,40.9,28.74,40.89z"/>
	<path class="st0" d="M3.89,35.76c-0.05,0-0.07,0.08-0.01,0.09c0.71,0.02,1.41,0,2.12-0.08c0.06-0.01,0.04-0.09-0.01-0.09
		C5.29,35.76,4.59,35.79,3.89,35.76z"/>
	<path class="st0" d="M4.87,34.31c-0.05,0-0.07,0.08-0.01,0.09c0.77,0.02,1.54,0.08,2.3,0.17c0.06,0.01,0.07-0.08,0.01-0.09
		C6.4,34.39,5.64,34.33,4.87,34.31z"/>
	<path class="st0" d="M43.25,10c-0.08-0.66-0.3-1.26-0.67-1.82c-0.03-0.05-0.1,0.01-0.07,0.05c0.36,0.54,0.57,1.14,0.65,1.78
		C43.17,10.07,43.26,10.06,43.25,10z"/>
	<path class="st0" d="M43.45,9.76c0.01,0.05,0.09,0.04,0.09-0.01c-0.1-0.7-0.25-1.46-0.88-1.87c-0.05-0.03-0.1,0.04-0.05,0.07
		C43.21,8.35,43.35,9.08,43.45,9.76z"/>
	<path class="st0" d="M45.62,6.22c0,0.06,0.09,0.04,0.09-0.01c-0.05-0.86-0.26-1.69-0.63-2.47c-0.02-0.05-0.1-0.02-0.08,0.03
		C45.36,4.55,45.57,5.36,45.62,6.22z"/>
	<path class="st0" d="M46.08,5.66c-0.12-0.73-0.29-1.45-0.52-2.16c-0.02-0.05-0.1-0.02-0.08,0.03c0.23,0.7,0.4,1.41,0.51,2.14
		C46,5.73,46.09,5.72,46.08,5.66z"/>
	<path class="st0" d="M46.56,5.64c0,0.06,0.09,0.04,0.09-0.01c-0.06-0.87-0.23-1.72-0.48-2.55c-0.02-0.05-0.09-0.02-0.08,0.03
		C46.34,3.94,46.5,4.78,46.56,5.64z"/>
	<path class="st0" d="M47.95,8.4c0.25-0.94,0.21-1.9,0.09-2.87c-0.06-0.52-0.14-1.04-0.2-1.56c-0.03-0.24-0.24-1.67,0-1.74
		c0.05-0.01,0.04-0.1-0.01-0.09c-0.24,0.06-0.16,0.46-0.16,0.64c0.01,0.6,0.08,1.19,0.16,1.78C48,5.84,48.2,7.11,47.87,8.36
		C47.86,8.42,47.94,8.45,47.95,8.4z"/>
	<path class="st0" d="M46.79,5.01c0,0.06,0.09,0.04,0.09-0.01c-0.03-0.69-0.19-1.33-0.46-1.96c-0.02-0.05-0.1-0.02-0.08,0.03
		C46.61,3.69,46.76,4.33,46.79,5.01z"/>
	<path class="st0" d="M47.35,4.71c-0.1-0.68-0.34-1.3-0.71-1.88c-0.03-0.05-0.1,0.01-0.07,0.05c0.37,0.56,0.59,1.17,0.69,1.84
		C47.27,4.78,47.35,4.77,47.35,4.71z"/>
	<path class="st0" d="M48.31,4.36c0.03-0.8,0.07-1.6,0.1-2.4c0-0.06-0.08-0.07-0.09-0.01c-0.03,0.8-0.07,1.6-0.1,2.4
		C48.22,4.4,48.31,4.41,48.31,4.36z"/>
	<path class="st0" d="M48.63,4.26c0.06-0.81,0.13-1.62,0.19-2.43c0-0.06-0.08-0.07-0.09-0.01c-0.06,0.81-0.13,1.62-0.19,2.43
		C48.54,4.3,48.62,4.31,48.63,4.26z"/>
	<path class="st0" d="M53.96,4.49c-0.01-0.67-0.08-1.33-0.22-1.99c-0.01-0.05-0.1-0.04-0.09,0.01c0.14,0.65,0.21,1.3,0.22,1.97
		C53.87,4.54,53.96,4.55,53.96,4.49z"/>
	<path class="st0" d="M54.26,4.04c0,0.06,0.08,0.07,0.09,0.01c0.04-0.51-0.05-0.99-0.27-1.46c-0.02-0.05-0.1-0.02-0.08,0.03
		C54.21,3.08,54.29,3.53,54.26,4.04z"/>
	<path class="st0" d="M54.61,4.43c-0.03-0.65-0.05-1.29-0.08-1.94c0-0.06-0.09-0.04-0.09,0.01c0.03,0.65,0.05,1.29,0.08,1.94
		C54.53,4.5,54.62,4.49,54.61,4.43z"/>
	<path class="st0" d="M55.18,4.78c0.09-0.94,0.33-1.84,0.72-2.7c0.02-0.05-0.06-0.08-0.08-0.03c-0.39,0.87-0.63,1.77-0.72,2.72
		C55.09,4.83,55.18,4.84,55.18,4.78z"/>
	<path class="st0" d="M53.16,21.7c-0.04,0.64-0.14,1.27-0.3,1.9c-0.01,0.05,0.07,0.06,0.09,0.01c0.16-0.62,0.26-1.25,0.3-1.9
		C53.25,21.66,53.17,21.65,53.16,21.7z"/>
	<path class="st0" d="M52.19,22.89c-0.06,0.42-0.08,0.84-0.06,1.26c0,0.06,0.09,0.04,0.09-0.01c-0.02-0.42,0-0.83,0.06-1.24
		C52.28,22.85,52.2,22.84,52.19,22.89z"/>
	<path class="st0" d="M55.93,20.97c0.21-0.79,0.37-1.64,0.68-2.4c0.02-0.05-0.06-0.08-0.08-0.03c-0.31,0.76-0.46,1.61-0.68,2.4
		C55.84,21,55.92,21.03,55.93,20.97z"/>
	<path class="st0" d="M59.19,19.69c0.04-0.22,0.56-2.68,0.64-2.64c0.05,0.02,0.08-0.06,0.03-0.08c-0.01-0.01-0.03-0.01-0.04-0.02
		c-0.01-0.01-0.03,0-0.04,0.01c-0.24,0.17-0.27,0.76-0.33,1.02c-0.13,0.57-0.25,1.14-0.35,1.71C59.1,19.73,59.18,19.74,59.19,19.69z
		"/>
	<path class="st0" d="M57.56,20.19c0.09-0.9,0.31-1.78,0.65-2.62c0.02-0.05-0.06-0.08-0.08-0.03c-0.34,0.85-0.56,1.73-0.65,2.64
		C57.47,20.23,57.55,20.24,57.56,20.19z"/>
	<path class="st0" d="M59.93,19.34c0.1-0.93,0.29-1.85,0.58-2.74c0.02-0.05-0.06-0.08-0.08-0.03c-0.29,0.9-0.48,1.82-0.59,2.76
		C59.84,19.38,59.93,19.39,59.93,19.34z"/>
</g>
</svg>
