<?xml version="1.0" encoding="utf-8"?>
<!-- Generator: Adobe Illustrator 23.0.3, SVG Export Plug-In . SVG Version: 6.00 Build 0)  -->
<svg version="1.1" id="Capa_1" xmlns="http://www.w3.org/2000/svg" xmlns:xlink="http://www.w3.org/1999/xlink" x="0px" y="0px"
	 viewBox="0 0 566 215" style="enable-background:new 0 0 566 215;" xml:space="preserve">
<style type="text/css">
	.st0{fill:#455E00;}
</style>
<g>
	<rect x="4.75" y="169" class="st0" width="555" height="2"/>
	<rect x="370.05" y="99" class="st0" width="189.7" height="4"/>
	<rect x="4" y="101" class="st0" width="198.75" height="4"/>
	<g>
		<path d="M230.42,197.83c-0.25,0.5-0.58,0.92-1.01,1.27c-0.43,0.35-0.94,0.62-1.53,0.82c-0.6,0.2-1.25,0.29-1.96,0.29
			c-1.18,0-2.24-0.2-3.18-0.59c-0.94-0.39-1.86-0.98-2.74-1.76l0.71-0.82c0.41,0.38,0.81,0.7,1.21,0.98s0.81,0.5,1.23,0.67
			c0.42,0.18,0.86,0.31,1.32,0.4c0.46,0.09,0.97,0.14,1.51,0.14s1.05-0.07,1.51-0.22c0.46-0.15,0.85-0.35,1.18-0.61
			c0.32-0.26,0.57-0.57,0.76-0.92c0.18-0.36,0.27-0.75,0.27-1.17v-0.04c0-0.39-0.06-0.74-0.18-1.05c-0.12-0.31-0.34-0.59-0.65-0.84
			s-0.74-0.48-1.27-0.68c-0.53-0.2-1.22-0.39-2.06-0.56c-0.88-0.18-1.64-0.4-2.27-0.64c-0.63-0.25-1.14-0.53-1.54-0.86
			c-0.4-0.33-0.69-0.71-0.87-1.14c-0.18-0.43-0.27-0.93-0.27-1.49v-0.04c0-0.55,0.12-1.05,0.36-1.52c0.24-0.47,0.57-0.88,0.99-1.23
			s0.92-0.62,1.49-0.82c0.57-0.2,1.2-0.29,1.89-0.29c1.06,0,1.98,0.15,2.76,0.44c0.78,0.29,1.54,0.74,2.28,1.34l-0.69,0.86
			c-0.7-0.6-1.4-1.03-2.11-1.28c-0.71-0.25-1.47-0.38-2.28-0.38c-0.55,0-1.04,0.07-1.48,0.22c-0.44,0.15-0.82,0.35-1.13,0.6
			s-0.56,0.55-0.72,0.88s-0.25,0.69-0.25,1.07v0.04c0,0.39,0.06,0.75,0.18,1.06c0.12,0.31,0.34,0.6,0.65,0.86
			c0.31,0.26,0.75,0.49,1.31,0.7c0.56,0.21,1.27,0.41,2.14,0.59c1.71,0.35,2.94,0.84,3.7,1.48c0.76,0.64,1.13,1.49,1.13,2.57v0.04
			C230.78,196.79,230.66,197.33,230.42,197.83z"/>
		<path d="M239.75,186.29V200h-1.09v-13.71h-5.12v-0.99h11.34v0.99H239.75z"/>
		<path d="M260.71,186.29V200h-1.09v-13.71h-5.12v-0.99h11.34v0.99H260.71z"/>
		<path d="M280.17,200v-6.89h-9.41V200h-1.09v-14.7h1.09v6.83h9.41v-6.83h1.09V200H280.17z"/>
		<path d="M299.76,195.54c-0.36,0.92-0.86,1.73-1.5,2.43c-0.64,0.7-1.42,1.26-2.34,1.67c-0.92,0.41-1.93,0.62-3.03,0.62
			c-1.12,0-2.13-0.21-3.03-0.62c-0.9-0.41-1.68-0.97-2.32-1.66c-0.64-0.69-1.14-1.49-1.49-2.4c-0.35-0.91-0.52-1.87-0.52-2.88v-0.04
			c0-1.01,0.18-1.97,0.54-2.89s0.86-1.73,1.5-2.43c0.64-0.7,1.42-1.26,2.33-1.67c0.91-0.41,1.92-0.62,3.04-0.62
			c1.11,0,2.11,0.21,3.02,0.62c0.91,0.41,1.69,0.97,2.33,1.66c0.64,0.69,1.14,1.49,1.49,2.4c0.35,0.91,0.52,1.87,0.52,2.88
			c0.01,0.01,0.01,0.03,0,0.04C300.29,193.66,300.11,194.62,299.76,195.54z M299.16,192.65c0-0.91-0.16-1.77-0.47-2.57
			s-0.75-1.5-1.3-2.1c-0.55-0.59-1.21-1.07-1.98-1.42c-0.77-0.35-1.61-0.52-2.52-0.52s-1.75,0.17-2.51,0.51
			c-0.76,0.34-1.42,0.81-1.97,1.41c-0.55,0.6-0.98,1.29-1.29,2.09c-0.31,0.8-0.46,1.65-0.46,2.56v0.04c0,0.91,0.16,1.77,0.47,2.57
			s0.75,1.5,1.3,2.1c0.55,0.6,1.21,1.07,1.98,1.42s1.61,0.52,2.52,0.52s1.75-0.17,2.51-0.51c0.76-0.34,1.42-0.81,1.97-1.41
			c0.55-0.59,0.98-1.29,1.29-2.09c0.31-0.8,0.46-1.65,0.46-2.56V192.65z"/>
		<path d="M317.3,200v-12.77l-5.82,8.46h-0.08l-5.82-8.46V200h-1.05v-14.7h1.03l5.9,8.69l5.9-8.69h1.03V200H317.3z"/>
		<path d="M335.57,200l-1.87-4.12h-8.67l-1.87,4.12h-1.13l6.85-14.81h1.05l6.85,14.81H335.57z M329.38,186.39l-3.88,8.5h7.75
			L329.38,186.39z"/>
		<path d="M349.57,197.83c-0.25,0.5-0.58,0.92-1.01,1.27c-0.43,0.35-0.94,0.62-1.53,0.82c-0.6,0.2-1.25,0.29-1.96,0.29
			c-1.18,0-2.24-0.2-3.18-0.59c-0.94-0.39-1.86-0.98-2.74-1.76l0.71-0.82c0.41,0.38,0.81,0.7,1.21,0.98s0.81,0.5,1.23,0.67
			c0.42,0.18,0.86,0.31,1.32,0.4c0.46,0.09,0.97,0.14,1.51,0.14s1.05-0.07,1.51-0.22c0.46-0.15,0.85-0.35,1.18-0.61
			c0.32-0.26,0.57-0.57,0.76-0.92c0.18-0.36,0.27-0.75,0.27-1.17v-0.04c0-0.39-0.06-0.74-0.18-1.05c-0.12-0.31-0.34-0.59-0.65-0.84
			s-0.74-0.48-1.27-0.68c-0.53-0.2-1.22-0.39-2.06-0.56c-0.88-0.18-1.64-0.4-2.27-0.64c-0.63-0.25-1.14-0.53-1.54-0.86
			c-0.4-0.33-0.69-0.71-0.87-1.14c-0.18-0.43-0.27-0.93-0.27-1.49v-0.04c0-0.55,0.12-1.05,0.36-1.52c0.24-0.47,0.57-0.88,0.99-1.23
			s0.92-0.62,1.49-0.82c0.57-0.2,1.2-0.29,1.89-0.29c1.06,0,1.98,0.15,2.76,0.44c0.78,0.29,1.54,0.74,2.28,1.34l-0.69,0.86
			c-0.7-0.6-1.4-1.03-2.11-1.28c-0.71-0.25-1.47-0.38-2.28-0.38c-0.55,0-1.04,0.07-1.48,0.22c-0.44,0.15-0.82,0.35-1.13,0.6
			s-0.56,0.55-0.72,0.88s-0.25,0.69-0.25,1.07v0.04c0,0.39,0.06,0.75,0.18,1.06c0.12,0.31,0.34,0.6,0.65,0.86
			c0.31,0.26,0.75,0.49,1.31,0.7c0.56,0.21,1.27,0.41,2.14,0.59c1.71,0.35,2.94,0.84,3.7,1.48c0.76,0.64,1.13,1.49,1.13,2.57v0.04
			C349.94,196.79,349.81,197.33,349.57,197.83z"/>
	</g>
	<g>
		<g>
			<g>
				<path d="M261.24,50.85c0.06,0.05,0.17-0.02,0.12-0.08c-1.22-1.59-2.62-3.02-3.76-4.67c-0.06-0.09-0.22-0.01-0.15,0.08
					C258.52,47.78,259.72,49.55,261.24,50.85z"/>
				<path d="M262.34,51.82c0.08,0.08,0.22-0.02,0.16-0.11c-1.25-1.74-2.66-3.36-3.79-5.18c-0.04-0.07-0.16-0.01-0.12,0.06
					C259.65,48.39,260.81,50.31,262.34,51.82z"/>
				<path d="M250.13,75.5c2.08-0.86,4.29-1.23,6.41-1.94c0.18-0.06,0.17-0.34-0.05-0.33c-4.15,0.3-8.45,2.71-11.62,5.01
					c-0.04,0.03,0.01,0.1,0.06,0.07C246.56,77.23,248.29,76.26,250.13,75.5z"/>
				<path d="M269.9,89.43c0.01-0.16-0.26-0.19-0.3-0.04c-1.08,4.08-0.67,8.57,0.21,12.65c0.02,0.09,0.18,0.07,0.17-0.02
					C269.35,97.74,269.68,93.72,269.9,89.43z"/>
				<path d="M326.68,82.27c-2.4-0.39-4.99-1-7.46-1.09c-0.52-0.44-1.07-0.87-1.62-1.28c2.76,0.35,5.72,0.24,8.39,0.04
					c0.17-0.01,0.18-0.24,0-0.25c-3.08-0.08-6.23-0.42-9.32-0.46c-0.42-0.29-0.87-0.56-1.33-0.8c3.38,0.14,6.82-0.31,10.24-0.31
					c0.18,0,0.18-0.24,0-0.26c-2.63-0.22-5.19,0.06-7.82,0.1c-1.44,0.02-2.85-0.09-4.25-0.27c-0.03-0.02-0.06-0.03-0.1-0.05
					c3.04,0.33,6.2,0.3,8.96-0.18c0.17-0.03,0.11-0.24-0.04-0.26c-2.33-0.25-4.71-0.13-7.06-0.27c-1.34-0.08-2.67-0.22-4-0.35
					c-0.76-0.35-1.52-0.68-2.3-0.99c4.23,0.69,8.55,1.09,12.81,1.21c0.27,0.01,0.25-0.34,0-0.37c-4.54-0.52-9.08-1.08-13.62-1.61
					c3.51,0.13,7.06,0.02,10.51-0.15c0.26-0.01,0.26-0.37,0-0.37c-5.04,0.09-10.01-0.27-15.01-0.48c-1.89-0.51-3.82-0.9-5.75-1.16
					c1.43-0.28,2.85-0.55,4.29-0.76c3.32-0.48,6.65-0.73,9.98-1.08c0.18-0.02,0.19-0.26,0-0.26c-5.49-0.15-11.67,0.38-17.09,1.83
					c-0.18-0.01-0.37-0.02-0.55-0.03c1.4-0.41,2.8-0.83,4.23-1.17c2.75-0.66,5.56-1.11,8.3-1.79c0.12-0.03,0.1-0.2-0.03-0.2
					c-4.76,0.36-10.03,1.48-14.62,3.11c-1.72,0.01-3.42,0.13-5.1,0.37c3.35-1.06,6.72-1.95,10.29-2.43c0.13-0.02,0.1-0.23-0.03-0.22
					c-1.5,0.11-3,0.29-4.49,0.54c3.27-1.01,6.56-1.94,9.95-2.67c0.15-0.03,0.08-0.24-0.06-0.21c-4.76,0.97-9.56,2.13-14.14,3.72
					c0.37-0.27,0.75-0.55,1.13-0.8c0.07-0.05,0.14-0.09,0.21-0.14c0.03,0.02,0.06,0.04,0.1,0.04c2.14-0.23,3.86-1.52,5.88-2.16
					c2.47-0.78,5.04-0.91,7.61-0.67c0.1,0.01,0.12-0.14,0.02-0.16c-4.74-0.83-8.49,0.57-12.61,2.31c1.94-1.22,3.98-2.33,6.12-3.24
					c3.22-0.66,6.23-0.75,9.47,0.31c0.1,0.03,0.18-0.12,0.08-0.16c-2.12-0.86-4.51-1.31-6.84-1.15c0.47-0.15,0.94-0.28,1.41-0.41
					c1.35,0.11,2.67,0.12,4.02,0.38c1.33,0.26,2.63,0.67,3.89,1.13c0.11,0.04,0.18-0.12,0.08-0.17c-1.9-0.88-4.24-1.61-6.5-1.73
					c0.53-0.13,1.06-0.26,1.59-0.37c0.67,0.02,1.33,0.08,2.03,0.25c1.51,0.37,2.86,1.03,4.06,1.93c0.08,0.06,0.2-0.04,0.12-0.11
					c-1.28-1.03-3.01-1.93-4.82-2.33c0.3-0.06,0.6-0.12,0.91-0.17c0.1-0.02,0.2-0.04,0.31-0.05c1.07,0.08,2.07,0.3,3.11,0.82
					c1.43,0.72,2.66,1.75,3.9,2.72c0.1,0.08,0.25-0.05,0.15-0.14c-1.51-1.35-3.49-3-5.68-3.66c0.42-0.07,0.84-0.15,1.26-0.22
					c1.08,0.08,2.08,0.32,3.13,0.91c1.35,0.76,2.49,1.81,3.63,2.8c0.04,0.04,0.11-0.02,0.07-0.06c-1.36-1.38-3.32-3.18-5.48-3.87
					c0.16-0.02,0.32-0.05,0.47-0.07c2.23,0.3,4.54,1.52,6.2,2.71c0.02,0.01,0.05-0.01,0.03-0.03c-1.24-1.02-2.69-1.72-4.2-2.34
					c-0.4-0.16-0.8-0.32-1.21-0.45c0.39-0.05,0.77-0.09,1.16-0.12c2.36,0.15,4.65,0.5,6.3,2.29c0.04,0.04,0.12-0.01,0.09-0.06
					c-1.07-1.33-2.62-2.01-4.3-2.31c0.58,0,1.16,0.02,1.74,0.07c0.13,0.01,0.13-0.18,0-0.19c-2.12-0.2-4.37-0.16-6.64,0.04
					c-0.22,0-0.45,0.02-0.67,0.05c-0.38,0.04-0.76,0.09-1.14,0.14c-0.17,0.02-0.35,0.03-0.52,0.07c-0.73,0.1-1.46,0.22-2.19,0.35
					c-0.27,0.02-0.54,0.05-0.81,0.11c-0.04,0.01-0.07,0.04-0.09,0.06c-0.6,0.12-1.19,0.25-1.78,0.39c-0.41,0.02-0.81,0.07-1.21,0.17
					c-0.08,0.02-0.11,0.08-0.1,0.14c-1.67,0.43-3.29,0.93-4.8,1.46c-3.13,1.11-6.56,2.71-9.56,4.68c2.12-1.89,4.04-3.95,5.8-6.13
					c0.13-0.16-0.17-0.38-0.31-0.22c-3.16,3.66-6.91,7.33-11.3,9.83c-0.04,0.01-0.07,0.03-0.11,0.04c0.03-0.13-0.06-0.22-0.18-0.25
					c0.17-0.33,0.34-0.67,0.51-1c2.11-1.21,4.06-2.87,5.89-4.34c2.47-1.98,4.83-4.07,7.09-6.24c0.18-0.18-0.11-0.44-0.29-0.27
					c-2.17,2.08-4.42,4.06-6.83,5.9c-1.65,1.26-3.46,2.38-5.18,3.58c0.4-0.8,0.8-1.59,1.2-2.37c1.11-0.91,2.2-1.83,3.34-2.7
					c2.54-1.92,5.18-3.71,7.89-5.42c0.23-0.14,0.01-0.49-0.22-0.34c-3.34,2.07-6.96,4.29-10.14,6.81c0.07-0.13,0.14-0.26,0.21-0.39
					c4.2-3.15,8.25-6.38,12.83-9.14c0.16-0.1,0.01-0.34-0.15-0.24c-3.97,2.38-8.11,4.9-11.77,7.78c0.19-0.33,0.39-0.66,0.59-0.99
					c3.78-2.83,7.42-5.91,12.02-7.5c0.18-0.06,0.12-0.32-0.08-0.27c-2.94,0.66-5.39,2.42-7.79,4.03c-1,0.67-2.02,1.34-3.03,2.04
					c0.31-0.45,0.65-0.9,0.98-1.35c3.69-2.18,7.38-4.18,11.57-5.7c0.17-0.06,0.1-0.32-0.08-0.26c-3.5,1.13-7.05,2.56-10.27,4.39
					c0.61-0.74,1.34-1.6,2.15-2.51c3.32-1.77,6.81-3.07,10.87-3.75c0.21-0.04,0.12-0.31-0.09-0.29c-3.2,0.41-6.5,1.31-9.52,2.66
					c0.17-0.18,0.34-0.35,0.51-0.53c3.51-1.63,7.28-3.43,11.11-3.61c0.14-0.01,0.15-0.2,0-0.21c-2.79-0.06-5.98,0.91-8.88,2.19
					c0.23-0.39,0.45-0.78,0.68-1.18c0.09-0.08,0.18-0.16,0.28-0.24c0.27-0.15,0.55-0.29,0.83-0.42c0.07,0.04,0.14,0.06,0.21,0.01
					c0.1-0.07,0.18-0.15,0.27-0.23c0.31-0.13,0.64-0.24,0.98-0.33c2.68-0.7,5.57-0.7,8.34-0.66c0.14,0,0.14-0.19,0-0.2
					c-2.7-0.11-5.44-0.24-8.08,0.35c-0.19,0.04-0.37,0.1-0.55,0.15c0.08-0.09,0.15-0.19,0.22-0.29c3.36-1.02,6.85-1.11,10.27,0.09
					c0.13,0.05,0.19-0.15,0.06-0.19c-3.14-1.09-6.48-1.36-9.63-0.56c0.65-0.45,1.31-0.86,1.96-1.21c2.5,0.05,4.94,0.19,7.4,0.81
					c0.07,0.02,0.1-0.08,0.03-0.1c-2.17-0.59-4.42-1.05-6.69-1.09c0.63-0.3,1.26-0.54,1.88-0.71c0.27-0.03,0.53-0.06,0.8-0.07
					c1.46-0.05,2.81,0.36,4.16,0.83c0.13,0.05,0.18-0.14,0.06-0.19c-0.91-0.35-1.81-0.7-2.77-0.88c0.21,0.01,0.41,0.02,0.61,0.05
					c0.47,0.06,0.68-0.58,0.2-0.66c-0.22-0.04-0.44-0.04-0.65-0.06c1.71-1.27,3.15-2.9,5.23-3.71c0.1-0.04,0.02-0.17-0.07-0.15
					c-1.21,0.21-2.11,0.92-3.05,1.61c-0.93,0.68-1.98,1.38-2.79,2.22c-0.34,0-0.68,0.01-1.03,0.05c1.7-1.55,3.33-3.16,5-4.73
					c0.1-0.1-0.06-0.25-0.17-0.15c-1.88,1.67-3.82,3.31-5.65,5.03c-0.5,0.1-1,0.23-1.5,0.4c0.31-0.37,0.63-0.74,0.95-1.11
					c1.41-1.61,2.88-3.19,4.49-4.65c0.1-0.09-0.06-0.24-0.16-0.15c-1.32,1.21-2.65,2.4-3.87,3.7c-0.58,0.61-1.14,1.23-1.68,1.87
					c-0.13,0.15-0.26,0.31-0.39,0.47c-0.03,0.03-0.07,0.1-0.12,0.17c-0.27,0.03-0.54,0.06-0.81,0.07c-0.22,0.01-0.21,0.29,0,0.31h0
					c-0.16,0.08-0.32,0.16-0.47,0.24c0.13-0.21,0.27-0.41,0.41-0.6c1.43-1.94,2.93-3.84,4.49-5.7c0.12-0.15-0.16-0.34-0.28-0.2
					c-1.25,1.47-2.47,2.97-3.64,4.49c-0.61,0.79-1.51,1.76-2.28,2.76c-0.4,0.26-0.8,0.52-1.2,0.8c1.18-2.06,2.39-4.09,3.83-6.05
					c0.13-0.18-0.18-0.34-0.31-0.16c-1.69,2.24-3.38,4.62-4.71,7.12c-0.4,0.32-0.79,0.65-1.18,0.98c1.14-2.44,2.31-4.86,3.73-7.21
					c0.12-0.2-0.21-0.37-0.33-0.18c-1.73,2.72-3.43,5.57-4.68,8.54c-0.25,0.23-0.49,0.46-0.72,0.69c-0.26,0.15-0.53,0.3-0.8,0.45
					c1.45-2.83,2.59-5.83,4.08-8.64c0.1-0.19-0.2-0.35-0.31-0.17c-1.82,3.26-3.96,6.77-4.95,10.35c-0.29,0.3-0.57,0.6-0.84,0.88
					c1.1-3.15,2.19-6.28,3.67-9.33c0.09-0.19-0.21-0.36-0.31-0.16c-1.63,3.31-3.18,6.74-4.1,10.28c-0.16,0.17-0.31,0.34-0.47,0.51
					c-0.15,0.1-0.29,0.21-0.44,0.31c0.86-2.71,1.65-5.44,2.44-8.15c0.04-0.13-0.18-0.19-0.23-0.06c-0.97,2.87-1.97,5.75-2.85,8.65
					c-0.31,0.22-0.62,0.44-0.92,0.67c0.76-2.57,1.54-5.13,2.55-7.65c0.06-0.16-0.21-0.23-0.28-0.07c-0.43,1.03-0.85,2.08-1.26,3.13
					c0.17-0.49,0.34-0.99,0.51-1.48c0.05-0.14-0.18-0.19-0.23-0.06c-1.25,3.3-2.65,6.6-3.84,9.93c-0.16,0.13-0.34,0.26-0.5,0.4
					c-0.13,0.11,0.04,0.31,0.19,0.22c0.04-0.02,0.08-0.05,0.12-0.07c-0.03,0.1-0.07,0.19-0.1,0.29c-0.45,0.65-0.87,1.3-1.28,1.97
					c-0.29,0.26-0.57,0.52-0.85,0.79c-0.13,0.13,0.02,0.36,0.2,0.29c-0.72,1.26-1.36,2.54-1.9,3.84c-0.06,0.06-0.13,0.12-0.19,0.19
					c0.04-0.36,0.08-0.73,0.11-1.1c0.07,0,0.13-0.02,0.17-0.08c2.22-4.11,3.9-8.52,5.8-12.76c0.12-0.27-0.36-0.39-0.48-0.12
					c-1.8,3.97-3.85,7.93-5.41,11.99c0.07-1.09,0.09-2.19,0.07-3.29c1.94-3.53,3.33-7.39,4.96-11.03c0.15-0.33-0.45-0.48-0.59-0.15
					c-1.43,3.18-3.12,6.39-4.4,9.66c-0.02-0.56-0.05-1.12-0.09-1.68c1.91-3.57,3.11-7.55,4.57-11.27c0.08-0.21-0.3-0.31-0.38-0.09
					c-1.23,3.55-2.96,6.97-4.25,10.5c-0.04-0.5-0.08-1-0.13-1.5c1.45-3.33,2.53-6.8,3.85-10.17c0.08-0.21-0.28-0.3-0.37-0.09
					c-1.26,3.01-2.61,6.03-3.6,9.13c-0.03-0.31-0.07-0.62-0.11-0.92c0.96-1.06,1.21-3.05,1.66-4.34c0.75-2.17,1.5-4.33,2.22-6.51
					c0.09-0.27-0.36-0.38-0.46-0.12c-0.65,1.75-1.29,3.5-1.92,5.26c-0.17,0.47-1.02,3.59-1.61,4.83c-0.1-0.75-0.2-1.49-0.3-2.22
					c1.21-3.16,2.23-6.38,3.33-9.57c0.07-0.19-0.26-0.27-0.32-0.08c-1.05,2.88-2.18,5.74-3.16,8.64c-0.06-0.37-0.12-0.73-0.18-1.09
					c1.34-3.13,2.3-6.46,3.25-9.69c0.06-0.2-0.28-0.29-0.35-0.09c-0.91,3-2.05,5.94-3.05,8.91c-0.08-0.45-0.18-0.9-0.27-1.35
					c1.16-3.44,2.32-6.84,3.82-10.17c0.11-0.24-0.32-0.35-0.43-0.11c-1.38,3.07-2.66,6.23-3.56,9.46c-0.16-0.74-0.33-1.47-0.52-2.21
					c1.14-2.99,2.22-5.98,3.56-8.92c0.06-0.14-0.2-0.24-0.26-0.1c-1.26,2.71-2.51,5.49-3.47,8.32c-0.15-0.59-0.32-1.17-0.48-1.76
					c1.56-2.98,2.66-6.23,3.74-9.36c0.11-0.31-0.42-0.44-0.53-0.13c-1.02,2.96-2.31,5.82-3.43,8.74c-0.09-0.31-0.18-0.62-0.27-0.93
					c1.31-2.83,2.08-6.01,2.93-8.93c0.07-0.23-0.32-0.33-0.39-0.1c-0.83,2.72-1.99,5.41-2.84,8.14c-0.13-0.41-0.27-0.82-0.41-1.23
					c0.05,0.06,0.15,0.08,0.19-0.01c1.14-2.26,1.58-5.02,2.14-7.44c0.04-0.15-0.21-0.22-0.26-0.06c-0.65,2.44-1.73,4.92-2.12,7.39
					c-0.14-0.4-0.28-0.8-0.43-1.21c0.99-2.15,1.37-4.7,1.81-6.97c0.04-0.22-0.33-0.32-0.38-0.09c-0.39,1.91-1.04,3.8-1.5,5.71
					c-0.1-0.09-0.21-0.18-0.32-0.28c0.66-1.87,0.94-3.93,1.3-5.85c0.03-0.16-0.23-0.22-0.26-0.07c-0.39,1.89-0.99,3.78-1.31,5.67
					c-0.02-0.02-0.05-0.04-0.07-0.06c-0.05-0.13-0.11-0.26-0.16-0.39c0.1,0.01,0.22-0.1,0.15-0.2c-0.07-0.1-0.16-0.2-0.24-0.3
					c0.55-1.48,0.8-3.14,1.05-4.63c0.04-0.23-0.35-0.33-0.39-0.1c-0.24,1.4-0.69,2.79-1.01,4.18c-0.14-0.34-0.28-0.68-0.43-1.02
					c0.24-1.57,0.43-3.14,0.71-4.7c0.03-0.19-0.29-0.28-0.32-0.08c-0.27,1.36-0.52,2.74-0.68,4.12c-0.35-0.77-0.7-1.54-1.07-2.3
					c-0.08-0.16-0.38-0.04-0.31,0.12c0.39,0.92,0.77,1.85,1.14,2.78c-1.17-1.32-2.46-2.58-3.7-3.8c-0.03-0.03-0.09,0.02-0.06,0.05
					c1.36,1.46,2.59,3.02,3.89,4.52c0,0.08-0.01,0.16-0.02,0.24c-0.01,0.14,0.24,0.17,0.27,0.04c0.08,0.22,0.16,0.44,0.24,0.66
					c-2.32-1.98-4.75-3.88-7.1-5.82c-0.07-0.06-0.17,0.03-0.1,0.1c2.37,2.14,4.77,4.3,7.3,6.3c0,0.01,0,0.02-0.01,0.03
					c-0.02,0.1,0.11,0.2,0.2,0.18c0.08,0.21,0.15,0.43,0.22,0.64c-1.9-2-4.44-3.66-6.82-5.05c-0.07-0.04-0.14,0.06-0.07,0.1
					c2.69,1.68,4.81,3.71,7.14,5.72c0.15,0.45,0.3,0.89,0.44,1.34c-2.34-2.2-4.82-4.27-7.15-6.49c-0.07-0.07-0.18,0.03-0.11,0.1
					c2.36,2.3,4.75,4.67,7.37,6.72c0.14,0.44,0.26,0.89,0.39,1.34c-1.93-2.07-4.12-3.99-6.26-5.86c-0.07-0.06-0.16,0.03-0.1,0.09
					c2.24,2.12,4.33,4.38,6.57,6.5c0.07,0.25,0.15,0.5,0.22,0.75c-0.03,0.1-0.06,0.2-0.08,0.3c-1.8-2.02-3.92-3.89-5.81-5.79
					c-0.06-0.06-0.16,0.03-0.1,0.09c2.06,2.25,4.05,4.79,6.36,6.87c0.03,0.1,0.05,0.2,0.08,0.3c-0.02,0.05-0.04,0.09-0.05,0.14
					c-0.04,0.1,0.04,0.17,0.14,0.19c0.04,0.16,0.08,0.32,0.12,0.48c-1.62-2.06-3.5-3.99-5.33-5.87c-0.07-0.08-0.19,0.03-0.12,0.11
					c1.94,2.14,3.71,4.42,5.63,6.57c0.07,0.33,0.14,0.65,0.21,0.98c-1.51-2.15-3.51-4.17-5.18-6.15c-0.07-0.08-0.22-0.01-0.15,0.08
					c1.02,1.35,2.07,2.68,3.11,4.02c0.79,1.01,1.53,2.1,2.43,3.05c0.06,0.32,0.11,0.64,0.17,0.95c-1.52-2.22-3.45-4.31-5.09-6.42
					c-0.08-0.1-0.27-0.01-0.19,0.1c1.78,2.36,3.41,5,5.43,7.21c0.06,0.35,0.12,0.7,0.18,1.05c-1.27-2.11-2.74-4.15-4.18-6.15
					c-0.07-0.09-0.23-0.01-0.16,0.09c1.56,2.31,2.95,4.71,4.48,7.04c0.04,0.27,0.07,0.53,0.1,0.8c-1.22-2.15-2.62-4.21-4.15-6.19
					c-0.11-0.14-0.36-0.01-0.26,0.14c1.71,2.26,3.18,4.61,4.53,7.06c0.01,0.14,0.04,0.27,0.05,0.41c0.01,0.13,0.01,0.26,0.03,0.39
					c-1.19-2.28-2.89-4.45-4.19-6.64c-0.08-0.14-0.32-0.02-0.24,0.13c0.89,1.54,1.73,3.24,2.7,4.83c-1.04-1.56-2.24-3-3.59-4.35
					c-0.13-0.13-0.35,0.06-0.21,0.2c1.51,1.51,2.84,3.15,3.92,4.94c0.63,1.05,1.09,2.3,1.79,3.34c0.02,0.52,0.01,1.03,0.02,1.54
					c-1.58-2.77-3.3-5.48-5.07-8.16c-0.09-0.14-0.33-0.01-0.24,0.13c1.82,2.84,3.49,5.74,5.16,8.65c-0.01,0.03-0.01,0.06,0.01,0.09
					c0.05,0.07,0.1,0.15,0.16,0.22c0,0.34-0.02,0.67-0.03,1.01c-1.31-2.92-3.29-5.74-4.97-8.42c-0.09-0.14-0.33-0.02-0.24,0.13
					c1.8,3.03,3.23,6.4,5.17,9.36c-0.02,0.61-0.05,1.21-0.09,1.81c-0.26-0.58-0.61-1.16-0.75-1.49c-0.88-2.09-1.83-4.16-2.81-6.21
					c-0.06-0.13-0.31-0.03-0.25,0.1c0.7,1.54,1.37,3.09,1.99,4.66c0.29,0.73,0.57,1.47,0.84,2.2c0.18,0.48,0.93,1.73,0.66,2.22
					c-0.07,0.13,0.06,0.3,0.22,0.25c-0.03,0.38-0.05,0.76-0.08,1.13c-0.19-0.88-0.64-1.8-0.89-2.49c-0.23-0.64-0.49-1.26-0.76-1.89
					c-0.15-0.64-0.31-1.29-0.46-1.93c-0.03-0.11-0.21-0.06-0.19,0.05c0.04,0.24,0.08,0.47,0.12,0.71c-0.26-0.56-0.52-1.12-0.8-1.67
					c-0.05-0.09-0.15-0.07-0.2-0.01c-0.22-0.73-0.43-1.45-0.63-2.17c-0.05-0.16-0.32-0.09-0.28,0.07c0.7,2.95,1.17,6.08,2.2,8.95
					c-0.37-0.57-0.76-1.13-1.15-1.68c0.13-0.01,0.21-0.17,0.07-0.26c-0.09-0.06-0.2-0.11-0.29-0.16c0.08,0.01,0.15-0.02,0.14-0.11
					c-0.42-3.3-1.78-6.69-2.77-9.88c-0.04-0.12-0.24-0.07-0.21,0.05c0.61,2.48,1.09,5.17,1.89,7.67c-0.21-0.09-0.42-0.17-0.63-0.26
					c-0.69-3.13-1.81-6.23-2.68-9.32c-0.05-0.16-0.32-0.09-0.28,0.07c0.78,3.01,1.45,6.14,2.54,9.08c-0.11-0.04-0.21-0.08-0.32-0.12
					c-0.13-0.16-0.26-0.32-0.4-0.47c-0.67-2.88-1.73-5.72-2.62-8.55c-0.03-0.09-0.18-0.05-0.16,0.04c0.63,2.25,1.18,4.54,1.89,6.78
					c-0.25-0.09-0.5-0.17-0.75-0.25c-0.5-2.61-1.59-5.2-2.58-7.69c-0.04-0.11-0.23-0.06-0.19,0.05c0.87,2.45,1.48,5,2.39,7.43
					c-0.39-0.4-0.78-0.8-1.18-1.19c0.05-0.01,0.09-0.04,0.09-0.1c-0.33-2.32-1.24-4.64-2.15-6.82c-0.05-0.13-0.29-0.08-0.23,0.06
					c0.79,1.99,1.3,4.01,1.9,6.03c-0.25-0.09-0.51-0.17-0.77-0.25c-0.11-0.1-0.21-0.2-0.32-0.3c-0.6-2.14-1.33-4.27-2.05-6.38
					c-0.01-0.04-0.09-0.03-0.08,0.02c0.53,1.99,1.05,4,1.68,5.97c-0.29-0.26-0.59-0.51-0.89-0.77c-0.52-1.97-1.4-3.93-2.26-5.77
					c-0.05-0.12-0.28-0.03-0.23,0.09c0.76,1.68,1.31,3.4,1.91,5.11c-0.06-0.03-0.13-0.04-0.19-0.07c-0.13-0.11-0.27-0.21-0.4-0.32
					c-0.06-0.17-0.12-0.33-0.18-0.5c0.04-0.08,0.01-0.18-0.09-0.24c-0.65-1.68-1.43-3.34-2.12-5c-0.04-0.11-0.23-0.06-0.19,0.05
					c0.6,1.59,1.15,3.22,1.83,4.8c-0.01,0-0.01,0-0.02,0c-0.95-2.05-2.19-4.02-3.3-6c-0.07-0.13-0.28-0.02-0.21,0.11
					c1.02,1.91,1.95,3.91,3.09,5.77c-0.08-0.02-0.15-0.05-0.23-0.07c-0.05-0.03-0.09-0.07-0.14-0.1c0.09-0.09,0.11-0.25-0.03-0.32
					c-0.32-0.15-0.64-0.29-0.97-0.41c-0.04-0.03-0.08-0.06-0.12-0.09c0.07,0.02,0.15,0.04,0.22,0.06c0.1,0.02,0.17-0.03,0.2-0.09
					c0.07,0.1,0.14,0.2,0.22,0.29c0.06,0.07,0.17-0.01,0.15-0.08c-0.29-0.97-0.95-1.86-1.47-2.75c-0.59-1.02-1.19-2.04-1.78-3.06
					c-0.07-0.12-0.27-0.01-0.2,0.11c0.57,1.04,1.13,2.07,1.7,3.11c0.39,0.71,0.73,1.48,1.2,2.16c-0.16-0.04-0.31-0.09-0.47-0.13
					c0.07-0.03,0.11-0.1,0.06-0.18c-1.22-1.82-2.62-3.5-3.71-5.4c-0.05-0.09-0.2-0.01-0.15,0.08c0.97,1.88,2.06,3.89,3.6,5.44
					c-0.15-0.04-0.29-0.09-0.44-0.13c-0.79-0.53-1.59-1.05-2.41-1.55c-1.07-1.37-2.5-2.61-3.7-3.86c-0.08-0.08-0.2,0.04-0.13,0.12
					c0.92,1,1.82,2.13,2.8,3.14c-0.49-0.28-0.98-0.57-1.48-0.84c-0.14-0.08-0.26,0.12-0.13,0.2c0.99,0.58,1.94,1.18,2.87,1.81
					c0,0,0,0,0,0l0,0c0.31,0.21,0.63,0.41,0.93,0.62c-3.54-1.07-7.03-2.11-10.86-1.52c-0.05,0.01-0.04,0.08,0.01,0.08
					c2.41-0.08,4.73-0.01,7.07,0.6c1.57,0.41,3.08,0.97,4.62,1.45c0,0,0.01,0,0.01,0.01c-3.9-1.01-7.86-0.26-11.94-1.03
					c-0.02,0-0.03,0.03-0.01,0.03c2.14,0.47,3.97,0.43,6.16,0.45c2.47,0.03,4.69,0.59,6.93,1.38c0.06,0.05,0.12,0.1,0.19,0.15
					c-3.29-0.69-6.72-0.62-10.06-0.2c-0.06,0.01-0.04,0.1,0.01,0.09c3.77-0.45,7.32,0.02,10.93,0.81c0.22,0.17,0.43,0.35,0.65,0.52
					c-3.27-0.88-6.94-0.82-10.25-0.87c-0.08,0-0.07,0.1,0,0.11c3.81,0.24,7.41,0.81,11.12,1.5c0.3,0.26,0.6,0.52,0.9,0.79
					c-3.25-1.29-6.89-1.63-10.38-1.21c-0.06,0.01-0.07,0.1,0,0.09c3.72-0.26,7.04,0.37,10.41,1.63c-2.78-0.52-5.66-0.48-8.52-0.42
					c-0.07,0-0.07,0.1,0,0.1c3.36,0.02,6.66,0.15,9.84,1.05c0.25,0.24,0.49,0.49,0.74,0.74c-1.49-0.36-3.24-0.23-4.7-0.54
					c-1.85-0.4-3.58-0.78-5.49-0.53c-0.09,0.01-0.07,0.16,0.02,0.15c2.02-0.22,3.82,0.3,5.74,0.76c1.58,0.38,3.58,0.27,5.08,0.81
					c0.12,0.13,0.24,0.26,0.35,0.38c-3.44-0.83-7.16-1.01-10.62-0.79c-0.07,0-0.08,0.11,0,0.11c3.94-0.04,7.54,0.54,11.26,1.38
					c0.51,0.55,1,1.12,1.48,1.69c-3.49-1.06-7.21-1.56-10.84-1.68c-0.12,0-0.11,0.16,0,0.16c4.08,0.21,7.75,1.05,11.46,2.26
					c0.4,0.5,0.79,1,1.17,1.51c-2.79-1.25-5.88-2.08-8.85-2.65c-0.07-0.01-0.1,0.08-0.03,0.1c3.36,0.74,6.37,1.94,9.41,3.28
					c0.2,0.28,0.41,0.56,0.61,0.84c-0.71-0.28-1.45-0.51-2.08-0.77c-2.61-1.05-5.22-2.08-7.84-3.1c-0.04-0.02-0.08,0.04-0.04,0.06
					c2.13,0.94,4.25,1.88,6.39,2.81c1.28,0.56,2.76,1.04,4.05,1.71c0.24,0.35,0.47,0.7,0.7,1.06c-2.98-1.97-7.07-2.65-10.32-3.99
					c-0.11-0.04-0.2,0.1-0.09,0.15c3.87,1.61,7.79,2.42,11.04,4.88c0.48,0.8,0.95,1.6,1.39,2.42c-2.99-2.84-7.48-4.5-11.27-6.06
					c-0.15-0.06-0.29,0.14-0.13,0.21c4.65,1.94,8.51,4.07,12.16,7.33c0.03,0.05,0.06,0.11,0.08,0.16c-0.01,0.16-0.01,0.31-0.02,0.47
					c-0.15-0.1-0.3-0.19-0.45-0.29c-3.33-2.88-7.51-5.11-11.62-6.77c-0.14-0.06-0.27,0.13-0.13,0.2c3.24,1.36,6.05,3.07,8.75,4.99
					c0.74,0.78,1.6,1.56,2.56,2.14c-0.48-0.26-0.97-0.49-1.48-0.7c-0.59-0.54-1.38-0.97-2.01-1.45c-0.9-0.69-1.74-1.44-2.55-2.22
					c-0.15-0.14-0.38,0.07-0.24,0.22c0.82,0.84,1.67,1.67,2.55,2.46c0.11,0.1,0.22,0.2,0.33,0.31c-0.23-0.07-0.47-0.13-0.71-0.19
					c-0.62-0.32-1.3-0.57-1.9-0.88c-1.12-0.59-2.19-1.25-3.2-1.99c-0.1-0.07-0.23,0.05-0.14,0.13c0.87,0.73,1.78,1.42,2.75,2.03
					c0.02,0.01,0.04,0.03,0.06,0.04c-0.94-0.16-1.82-0.36-2.73-0.76c-1.03-0.45-1.98-1.03-2.93-1.61c-0.14-0.09-0.26,0.11-0.13,0.2
					c1.1,0.75,2.36,1.65,3.72,2.22c-0.09,0-0.18,0-0.27,0c-0.06-0.11-0.2-0.18-0.36-0.09c-0.03,0.01-0.05,0.03-0.08,0.04
					c-1.98-0.68-4.06-1.18-6.06-1.8c-0.07-0.02-0.13,0.09-0.05,0.12c1.53,0.6,3.1,1.25,4.69,1.77c-0.38,0.02-0.76,0.06-1.14,0.1
					c-2.16-0.87-4.85-1.6-7.17-1.34c-0.09,0.01-0.1,0.14,0,0.13c1.53-0.04,2.93,0.4,4.32,0.86c-3.24-0.41-6.52,0.1-9.64,0.91
					c-0.09,0.02-0.05,0.14,0.04,0.12c3.21-0.72,6.32-0.68,9.59-0.55c0.27,0.01,0.34-0.35,0.12-0.44c0.5,0.16,1,0.32,1.5,0.47
					c-0.62,0.1-1.23,0.21-1.83,0.35c-1.07,0.26-2.12,0.58-3.15,0.95c0.04-0.15-0.03-0.32-0.25-0.33c-4.27-0.09-9.02,0.22-12.42,2.84
					c-0.06,0.04,0.02,0.13,0.08,0.09c3.76-2.22,7.74-2.32,12.06-2.4c-1.82,0.69-3.58,1.53-5.27,2.46c-0.05-0.01-0.1,0-0.14,0.02
					c-0.11,0.06-0.22,0.15-0.32,0.23c-0.06,0.04-0.13,0.07-0.19,0.11c-0.03-0.08-0.11-0.15-0.24-0.12c-2.16,0.49-4.31,1.86-6.04,3.1
					c-1.89,1.36-2.91,3.27-4.53,4.85c-0.06,0.06,0.03,0.13,0.09,0.09c1.66-1.19,2.58-2.95,4.16-4.21c1.37-1.09,3.02-2.05,4.71-2.79
					c-0.12,0.12-0.24,0.25-0.35,0.38c-0.13,0.08-0.27,0.16-0.4,0.24c-0.3,0.19-0.61,0.37-0.92,0.55c-0.04,0-0.07,0.02-0.1,0.05
					c0,0,0,0.01-0.01,0.01c-0.63,0.37-1.26,0.75-1.81,1.18c-0.06-0.02-0.13-0.01-0.17,0.06c-0.03,0.05-0.05,0.09-0.07,0.14
					c-0.94,0.8-1.57,1.75-1.35,3.08c0.01,0.08,0.09,0.11,0.16,0.11c-0.34,1.84-0.23,3.76,0.05,5.63c0.01,0.07,0.13,0.07,0.12,0
					c-0.24-2.51-0.17-4.95,0.7-7.29c0.4-0.51,0.96-1.01,1.61-1.5c-1.16,2.48-1.38,5.3-0.96,7.94c0.01,0.09,0.18,0.07,0.17-0.02
					c-0.33-3,0.3-5.65,1.43-8.38c0.2-0.14,0.41-0.27,0.61-0.41c-1.04,2.09-1.25,4.78-1.37,6.83c-0.01,0.1,0.15,0.09,0.16,0
					c0.37-2.57,0.91-5.08,2.12-7.39c0.41-0.24,0.83-0.48,1.23-0.7c-0.31,0.59-0.57,1.2-0.78,1.68c-0.75,1.72-1.08,3.46-1.09,5.3
					c0,0.1,0.16,0.1,0.17,0c0.12-1.5,0.42-2.99,0.97-4.41c0.15-0.38,0.73-1.87,1.36-2.91c0.94-0.49,1.78-0.9,2.4-1.2
					c-1.6,2.04-2.54,4.36-2.76,6.9c-0.01,0.11,0.17,0.11,0.19,0c0.4-2.71,1.54-5.18,3.42-7.3c0.27-0.13,0.54-0.25,0.82-0.38
					c-1.22,1.58-1.93,3.65-2.28,5.43c-0.02,0.08,0.12,0.12,0.14,0.04c0.37-1.21,0.85-2.4,1.48-3.52c0.46-0.83,1.07-1.58,1.6-2.36
					c0.45-0.19,0.91-0.37,1.37-0.54c-1.6,1.46-2.48,3.53-2.69,5.55c-0.01,0.08,0.13,0.09,0.15,0.02c0.46-2.35,1.72-4.11,3.49-5.81
					c0.04-0.04,0.05-0.08,0.05-0.11c0.39-0.13,0.79-0.26,1.19-0.37c-1.6,1.47-2.7,3.35-3.14,5.38c-0.02,0.1,0.13,0.14,0.17,0.04
					c0.85-2.21,2.17-4.07,4.03-5.68c0.01-0.01,0.02-0.03,0.03-0.04c0.16-0.04,0.31-0.08,0.47-0.12c-0.46,0.45-0.84,1.06-1.12,1.43
					c-0.75,1.03-1.23,2.18-1.54,3.38c-0.03,0.12,0.17,0.18,0.21,0.05c0.33-1,0.79-1.94,1.4-2.82c0.34-0.49,1.38-2.15,2.13-2.13
					c0.07,0,0.14-0.05,0.16-0.11c0.01-0.02,0.01-0.04,0.02-0.05c0.56-0.09,1.11-0.18,1.67-0.23c0.23-0.02,0.46-0.03,0.68-0.05
					c-0.06,0.05-0.13,0.1-0.19,0.15c-0.05-0.05-0.12-0.08-0.21-0.05c-2.1,0.7-3.63,2.4-4.03,4.39c-0.02,0.09,0.13,0.13,0.15,0.04
					c0.47-1.69,1.69-3,3.36-3.75c-0.95,0.89-1.7,1.93-2,3.13c-0.03,0.1,0.14,0.14,0.17,0.04c0.64-1.86,2.18-2.92,3.79-3.98
					c0.06,0,0.12,0,0.18,0c-1.38,0.97-2.45,2.27-3.14,3.75c-0.04,0.09,0.1,0.17,0.15,0.08c0.91-1.59,2.24-2.83,3.85-3.81
					c0.1,0,0.19,0,0.29,0.01c-0.88,0.56-1.58,1.44-1.88,2.26c-0.04,0.1,0.14,0.17,0.19,0.07c0.37-0.68,0.92-1.3,1.61-1.73
					c0.38-0.24,0.78-0.39,1.18-0.52c2.87,0.31,5.56,1.25,7.83,2.85c-0.01,0.01-0.01,0.03-0.02,0.04c-0.61-0.18-1.28-0.24-1.9-0.22
					c-0.21,0-0.21,0.29,0,0.29c0.71,0.01,1.32,0.17,1.96,0.35c-0.33,0.1-0.67,0.21-1,0.32c0.02-0.08-0.04-0.18-0.14-0.17
					c-2.19,0.16-4.26,0.65-6.5,0.59c-0.16,0-0.15,0.21,0,0.22c1.77,0.14,3.86,0.2,5.65-0.26c-0.71,0.28-1.42,0.59-2.11,0.91
					c-0.02-0.05-0.07-0.1-0.15-0.1c-1.94,0.04-3.98,0.69-5.86,1.09c-0.12,0.03-0.07,0.18,0.05,0.16c0.75-0.1,1.55-0.18,2.34-0.27
					c-2.31,1.14-4.48,2.29-6.99,3.07c-0.14,0.04-0.08,0.24,0.06,0.2c2.49-0.69,5.12-1.59,7.22-3.03c0.11-0.08,0.09-0.2,0.01-0.26
					c0.26-0.03,0.51-0.07,0.77-0.11c-0.56,0.42-1.11,0.85-1.64,1.3c-0.56,0.3-1.1,0.6-1.65,0.92c-2.36,0.83-4.71,1.37-6.89,2.6
					c-0.09,0.05-0.01,0.18,0.09,0.13c1.35-0.68,2.76-1.21,4.25-1.58c0.38-0.1,0.75-0.18,1.12-0.28c-0.63,0.39-1.24,0.79-1.85,1.2
					c-0.04-0.02-0.09-0.02-0.13,0.02c-0.05,0.05-0.1,0.11-0.15,0.17c-0.02,0.01-0.03,0.02-0.05,0.03c-2.29,0.86-4.52,1.88-6.8,2.74
					c-0.15,0.06-0.09,0.29,0.07,0.23c1.72-0.59,3.5-1.19,5.23-1.87c-0.24,0.18-0.49,0.37-0.72,0.56c-2.53,1.16-5,2.49-7.46,3.76
					c-0.1,0.05-0.01,0.19,0.09,0.14c2.07-0.99,4.19-1.94,6.25-2.98c-0.16,0.14-0.33,0.28-0.49,0.42c-0.67,0.35-1.27,0.83-1.85,1.31
					c-0.05,0-0.1,0-0.14,0.05c-0.04,0.05-0.08,0.11-0.13,0.16c-0.11,0.09-0.23,0.18-0.34,0.27c-1.98,1.54-4.05,2.97-6.16,4.35
					c-0.07,0.04-0.01,0.15,0.07,0.1c1.6-0.91,3.13-1.88,4.62-2.93c0.38-0.27,0.75-0.56,1.13-0.86c-0.24,0.36-0.47,0.72-0.68,1.1
					c-1.62,1.9-3.03,3.95-4.14,6.17c-0.05,0.1,0.11,0.19,0.17,0.09c0.92-1.64,1.99-3.19,3.18-4.66c-0.45,1.02-0.8,2.07-1.08,3.12
					c-0.01,0.04,0.05,0.06,0.07,0.02c0.59-1.6,1.35-3.07,2.19-4.52c0.85-0.95,1.74-1.86,2.69-2.73c-2.07,2.91-3.31,6.43-3.86,9.78
					c-0.02,0.12,0.17,0.17,0.2,0.05c0.92-4.03,2.73-7.36,4.95-10.85c0.22-0.09,0.43-0.17,0.66-0.23c0.01,0,0.01-0.01,0.02-0.02
					c-1.98,2.78-3.4,5.91-4.41,9.07c-0.04,0.12,0.17,0.18,0.21,0.05c1.37-4.08,3.57-7.56,6.17-11.02c0.27-0.19,0.54-0.39,0.82-0.58
					c0.15-0.1,0.3-0.19,0.45-0.29c0.07-0.03,0.13-0.06,0.2-0.09c-2.33,2.68-4.08,5.8-5.4,8.97c-0.05,0.11,0.14,0.15,0.19,0.05
					c1.68-3.69,3.98-6.8,6.62-9.92c0.31-0.18,0.62-0.36,0.93-0.53c-3.09,3.22-5.4,7.13-6.96,11.1c-0.07,0.18,0.24,0.26,0.32,0.08
					c1.87-4.73,4.84-8.59,8.49-12.16c0.77-0.39,1.55-0.77,2.34-1.13c0.93-0.42,1.91-0.78,2.88-1.13c-0.25,0.16-0.49,0.32-0.73,0.49
					c0-0.1-0.12-0.19-0.23-0.12c-4.5,2.7-8.01,6.97-10.5,11.26c-0.07,0.12,0.13,0.23,0.2,0.11c0.38-0.6,0.78-1.18,1.19-1.75
					c0.04,0,0.07,0,0.11-0.03c0.61-0.45,1.22-0.89,1.83-1.33c0,0,0,0.01-0.01,0.01c-0.11,0.18,0.18,0.33,0.3,0.16
					c0.2-0.29,0.41-0.55,0.62-0.83c2.09-1.51,4.19-3.03,6.25-4.58c-0.92,0.99-1.82,1.99-2.69,3.02c-3.22,2.51-6.61,5.2-8.94,8.35
					c-0.12,0.16,0.16,0.31,0.28,0.15c1.75-2.27,4.16-3.94,6.42-5.73c-0.5,0.66-1,1.32-1.48,2c-3.04,2.74-5.86,5.73-8.75,8.58
					c-0.12,0.12,0.07,0.29,0.19,0.18c2.34-2.2,4.78-4.36,7.1-6.6c-0.65,1-1.27,2.02-1.86,3.05c-2.68,2.57-5.18,5.34-7.65,8.05
					c-0.09,0.1,0.07,0.26,0.17,0.15c2.1-2.21,4.35-4.31,6.53-6.45c-0.29,0.56-0.58,1.13-0.85,1.7c-2.38,2.57-4.77,5.27-6.32,8.25
					c-0.05,0.1,0.11,0.19,0.17,0.09c1.37-2.54,3.47-4.57,5.41-6.7c-0.18,0.42-0.36,0.85-0.52,1.27c-2.36,2.95-4.3,6.25-6.21,9.44
					c-0.03,0.05,0.05,0.09,0.08,0.04c1.74-2.7,3.7-5.27,5.55-7.91c-0.03,0.08-0.05,0.16-0.08,0.24c-1.78,3.39-3.57,6.78-5.51,10.1
					c-0.07,0.11,0.12,0.21,0.19,0.1c1.67-2.75,3.27-5.54,4.75-8.38c-0.11,0.37-0.21,0.75-0.31,1.13c-1.68,2.69-3.17,5.6-4.31,8.48
					c-0.02,0.06,0.08,0.09,0.11,0.04c1.34-2.33,2.63-4.72,3.87-7.12c-0.2,0.91-0.36,1.83-0.49,2.76c-1.01,2.15-1.9,4.35-2.85,6.52
					c-0.02,0.04,0.06,0.08,0.09,0.03c0.86-1.77,1.77-3.53,2.61-5.32c-0.13,1.26-0.2,2.53-0.18,3.81c0,0.32,0.5,0.3,0.53,0
					c0.27-2.44,0.73-4.77,1.34-7.03c-0.22,1.86-0.13,3.75,0.11,5.62c0.23,1.85,0.26,4.17,1.44,5.74c0.03,0.04,0.11,0.01,0.08-0.04
					c-1.08-1.83-1.11-4.57-1.31-6.56c-0.22-2.18-0.14-4.26,0.23-6.42c0.01-0.05-0.02-0.08-0.05-0.11c0.17-0.55,0.36-1.1,0.55-1.64
					c0.29,4.1,0.91,8.19,1.74,12.22c0.02,0.1,0.19,0.06,0.17-0.04c-0.81-4.25-1.31-8.51-1.7-12.81c0.22-0.6,0.46-1.18,0.7-1.76
					c0.22,4.47,0.98,8.89,2.01,13.26c0.02,0.1,0.2,0.06,0.17-0.04c-1.04-4.66-1.53-9.35-1.84-14.07c0.24-0.56,0.51-1.12,0.77-1.67
					c-0.19,2.41,0.38,5.01,0.67,7.32c0.31,2.48,0.38,5.23,1.63,7.5c0.05,0.1,0.21,0.01,0.16-0.09c-1.27-2.48-1.25-5.59-1.55-8.29
					c-0.26-2.43-0.77-5.02-0.43-7.46c0.35-0.7,0.72-1.38,1.1-2.06c-0.35,2.24-0.04,4.59,0.11,6.81c0.19,2.83,0.48,5.67,0.98,8.47
					c0.01,0.03,0.06,0.02,0.06-0.01c-0.36-5.28-1.56-11.07-0.55-16.33c0.19-0.32,0.38-0.64,0.57-0.96c0.02,1.2,0.29,2.54,0.34,3.57
					c0.17,3.14,0.4,6.28,0.66,9.41c0.01,0.07,0.12,0.07,0.12,0c-0.09-2.54-0.17-5.08-0.27-7.62c-0.05-1.2-0.09-2.39-0.13-3.59
					c-0.02-0.7-0.23-1.75-0.19-2.65c0.18-0.28,0.36-0.55,0.54-0.83c-0.46,4.27-0.1,8.68,0.53,12.89c0.03,0.21,0.44,0.16,0.41-0.05
					c-0.65-4.67-0.49-9.21-0.27-13.86c0.68-1,1.39-1.99,2.12-2.97c-0.83,4.43-0.59,9.14,0.14,13.51c0.02,0.11,0.24,0.09,0.22-0.03
					c-0.6-4.93-0.22-9.58,0.37-14.44c0.27-0.35,0.54-0.71,0.82-1.06c-0.16,0.97-0.19,1.97-0.21,2.96c-0.06,2.74-0.07,5.48-0.05,8.22
					c0,0.15,0.24,0.15,0.25,0c0.22-3.97-0.2-8.35,0.9-12.26c0.48-0.59,0.97-1.17,1.47-1.75c-0.52,1.13-0.6,2.53-0.77,3.64
					c-0.42,2.83-0.48,5.66-0.37,8.52c0.01,0.17,0.29,0.17,0.29,0c-0.01-2.12,0.13-4.23,0.38-6.34c0.21-1.72,0.32-3.89,1.11-5.61
					c-0.12,0.71-0.22,1.41-0.33,2.1c-0.42,2.82-0.64,5.65-0.69,8.49c0,0.13,0.21,0.13,0.22,0c0.38-4.42,0.87-8.78,2.13-13.03
					c0.24-0.26,0.48-0.52,0.72-0.78c-0.23,0.77-0.4,1.56-0.6,2.26c-0.72,2.54-1.27,5.1-1.73,7.69c-0.03,0.18,0.26,0.26,0.3,0.08
					c0.81-3.83,1.75-7.79,3.35-11.43c0.17-0.18,0.34-0.36,0.51-0.53c-1.76,3.9-2.47,8.32-2.89,12.43c-0.02,0.18,0.28,0.17,0.3,0
					c0.31-2.49,0.92-4.84,1.65-7.17c-0.2,1-0.37,1.99-0.5,2.98c-0.02,0.16,0.28,0.2,0.31,0.04c0.17-0.92,0.39-1.82,0.63-2.71
					c-0.63,8.63,1.38,17.61,2.78,25.96c0.53,3.14,1.02,6.28,1.48,9.44c0.4,0.05,0.8,0.11,1.2,0.17c-0.14-0.99-0.28-1.97-0.43-2.96
					c-0.22-1.43-0.46-2.85-0.71-4.28c0.13,0.09,0.28,0.16,0.45,0.18c0.19,0.01,0.39-0.04,0.55-0.13c0.11,0.52,0.2,1.05,0.31,1.57
					c0.09,0.43,0.18,0.86,0.27,1.29c-0.01,0.01-0.02,0.01-0.02,0.02c-0.07,0.09-0.13,0.19-0.17,0.3c-0.09,0.18,0.18,0.34,0.3,0.17
					c0.01,0.04,0.02,0.08,0.03,0.12c-0.12,0-0.23,0-0.35,0c-0.13,0-0.13,0.18,0,0.18c0.13,0,0.26,0,0.39,0
					c0.06,0.29,0.12,0.58,0.18,0.87c-0.13,0-0.27,0-0.41,0.01c-0.15,0-0.15,0.2,0,0.21c0.15,0,0.3,0.01,0.45,0
					c0.06,0.26,0.11,0.52,0.17,0.79c-0.15,0-0.3,0.02-0.45,0.04c-0.19,0.02-0.19,0.24,0,0.26c0.17,0.02,0.35,0.04,0.52,0.04
					c0.04,0.18,0.08,0.37,0.12,0.55c-0.17,0-0.35-0.01-0.55-0.11c-0.17-0.08-0.31,0.14-0.15,0.23c0.21,0.12,0.5,0.21,0.77,0.22
					c0.05,0.23,0.1,0.47,0.15,0.7c0.33,0.07,0.66,0.14,0.98,0.22c-1.59-7.38-3.17-14.76-4.18-22.22c-0.55-4.07-0.79-8.09-0.85-12.12
					c1.39-0.16,1.54-1.64,1.04-2.63c0.16-0.11,0.3-0.25,0.41-0.41c0.14,0.73,0.28,1.46,0.42,2.19c0.03,0.14,0.28,0.11,0.27-0.03
					c-0.07-0.99-0.21-1.97-0.38-2.94c0.05-0.27,0.06-0.56,0.01-0.82c0.27-0.2,0.49-0.46,0.65-0.75c0.32,1.95,0.56,3.9,0.73,5.87
					c0.01,0.1,0.18,0.1,0.17,0c-0.11-2.09-0.38-4.15-0.75-6.21c0.04-0.12,0.08-0.24,0.1-0.36c0.23,0.25,0.46,0.5,0.69,0.74
					c0.42,2.38,0.66,4.77,0.93,7.18c0.01,0.13,0.22,0.14,0.23,0c0.02-2.24-0.28-4.49-0.72-6.71c0.24,0.26,0.48,0.51,0.72,0.77
					c0.72,2.9,1.17,5.82,1.53,8.78c0.03,0.21,0.39,0.22,0.37,0c-0.2-2.84-0.78-5.65-1.55-8.41c0.46,0.49,0.91,0.98,1.36,1.48
					c0.44,3.13,0.71,6.27,1.17,9.39c0.03,0.2,0.36,0.21,0.35,0c-0.12-2.97-0.58-5.94-1.07-8.88c0.44,0.5,0.88,1.01,1.3,1.53
					c0.47,3.23,0.53,6.45,0.81,9.69c0.01,0.16,0.26,0.16,0.27,0c0.18-3.07-0.26-6.22-0.75-9.27c0.34,0.42,0.67,0.85,0.98,1.28
					c0,0,0,0.01,0,0.01c0.49,3.24,0.35,6.46,0.64,9.71c0.02,0.19,0.29,0.18,0.31,0c0.44-3.01-0.06-6.22-0.61-9.23
					c0.21,0.29,0.42,0.58,0.61,0.88c0.41,0.63,0.8,1.27,1.16,1.92c0.01,1.39-0.19,3.01-0.19,3.6c0.01,1.77,0.29,3.95-0.29,5.66
					c-0.06,0.19,0.22,0.28,0.33,0.13c1.27-1.76,0.49-5.12,0.42-7.14c-0.02-0.39,0.04-0.99,0.06-1.63c0.27,0.5,0.52,1,0.76,1.5
					c0,1.55,0,3.1,0.02,4.64c0.02,1.6,0.32,3.49-0.16,5.04c-0.06,0.2,0.24,0.3,0.36,0.14c0.81-1.12,0.4-2.69,0.37-3.96
					c-0.04-1.64-0.1-3.28-0.16-4.92c0.18,0.42,0.36,0.83,0.52,1.26c-0.01,0.03-0.02,0.07,0.01,0.11c0.03,0.05,0.07,0.11,0.1,0.16
					c0.01,0.02,0.01,0.04,0.02,0.06c0.17,3.36,0.05,6.69,0.07,10.06c0,0.28,0.43,0.26,0.47,0c0.39-2.71,0.33-5.48,0.09-8.22
					c0.21,0.69,0.4,1.39,0.56,2.09c-0.01,0.03-0.04,0.05-0.04,0.08c0.09,2.74-0.12,5.53,0.1,8.26c0.02,0.28,0.44,0.28,0.48,0
					c0.14-1.22,0.15-2.46,0.11-3.71c0.05,1.03,0.05,2.07-0.02,3.11c-0.02,0.22,0.35,0.22,0.37,0c0.32-2.96,0.11-5.95-0.55-8.89
					c1.2,2.24,2.23,4.53,3.33,6.84c0.07,0.15,0.33,0.04,0.28-0.11c-0.85-2.83-2.33-5.53-3.96-8.09c-0.08-0.31-0.16-0.63-0.26-0.94
					c1.26,2.2,2.38,4.46,3.5,6.75c0.04,0.08,0.19,0.02,0.16-0.06c-0.95-2.81-2.43-5.47-4.1-7.99c-0.15-0.42-0.3-0.84-0.47-1.26
					c1.4,2.01,2.69,4.08,4.1,6.12c0.07,0.1,0.26,0.04,0.21-0.08c-1.14-2.72-2.97-5.25-4.96-7.6c-0.13-0.3-0.28-0.59-0.42-0.88
					c1.8,1.89,3.67,3.72,5.4,5.64c0.07,0.08,0.21-0.02,0.15-0.11c-1.71-2.43-3.94-4.48-6.08-6.62c-0.4-0.78-0.84-1.55-1.3-2.31
					c1.81,1.79,3.54,3.63,5.3,5.48c0.09,0.09,0.26-0.03,0.18-0.13c-1.82-2.31-3.95-4.45-6.19-6.46c-0.16-0.25-0.32-0.51-0.49-0.76
					c2.23,1.65,4.47,3.29,6.83,4.73c0.11,0.07,0.24-0.09,0.14-0.17c-2.38-1.92-4.98-3.66-7.56-5.38c-0.57-0.8-1.16-1.59-1.79-2.35
					c2.82,1.87,5.55,3.83,8.32,5.76c0.11,0.08,0.25-0.09,0.15-0.18c-2.71-2.26-5.77-4.25-8.87-6.08c-0.09-0.1-0.18-0.2-0.27-0.3
					c2.64,1.63,5.36,3.17,8.23,4.39c0.11,0.05,0.2-0.09,0.09-0.15c-2.97-1.62-5.96-3.16-8.87-4.85c-0.25-0.28-0.48-0.56-0.74-0.82
					c2.4,1.12,4.84,2.15,7.36,3.01c0.07,0.03,0.13-0.09,0.05-0.12c-2.63-1.07-5.24-2.13-7.81-3.3c-0.46-0.47-0.92-0.94-1.39-1.4
					c3.02,1.47,6.64,2.19,9.83,2.68c0.2,0.03,0.29-0.23,0.08-0.28c-0.52-0.13-1.03-0.25-1.54-0.38c0,0,0-0.01-0.01-0.01
					c-2.91-1.69-6.2-3.24-9.62-4.19c0.45-0.08,0.9-0.15,1.34-0.22c4.4,1.65,8.34,3.12,12.06,6.03c0.09,0.07,0.23-0.04,0.14-0.13
					c-2.9-2.59-6.74-5.1-10.79-6.12c0.85-0.13,1.7-0.24,2.54-0.34c2.32,0.92,4.48,1.92,6.51,3.38c1.94,1.4,3.48,3.24,5.56,4.46
					c0.14,0.08,0.26-0.11,0.13-0.2c-2.37-1.5-4.09-3.71-6.43-5.28c-1.42-0.95-2.98-1.81-4.61-2.5c1.4-0.14,2.8-0.24,4.21-0.27
					c-0.05,0.08-0.04,0.19,0.07,0.25c4.16,2.29,7.28,5.46,10.66,8.6c0.07,0.07,0.18-0.03,0.11-0.1c-3.06-3.23-6.14-6.8-10.41-8.76
					c0.61-0.01,1.21,0,1.82,0.01c1.85,1.48,3.81,2.84,5.6,4.4c1.9,1.66,3.63,3.44,5.4,5.21c0.06,0.06,0.17-0.02,0.12-0.08
					c-2.8-3.48-6.45-6.99-10.41-9.49c0.41,0.02,0.82,0.05,1.23,0.08c-0.05,0.07-0.06,0.17,0.05,0.23c3.29,1.82,5.77,4.36,8.22,7.02
					c0.07,0.08,0.19-0.03,0.12-0.11c-2.31-2.67-4.71-5.41-8.01-7.11c0.67,0.06,1.34,0.14,2.02,0.24c4.06,3.06,7.55,6,10.44,10.08
					c0.07,0.09,0.22,0.01,0.16-0.09c-2.27-3.78-5.63-7.51-9.7-9.86c0.51,0.09,1.03,0.18,1.55,0.29c1.3,0.28,2.58,0.62,3.84,1.01
					c-0.02,0.06-0.03,0.13,0.03,0.18c1.54,1.56,3.25,2.92,4.68,4.58c1.62,1.87,3.12,3.86,4.55,5.86c0,0,0.01,0,0.01,0
					c-2.06-3.34-4.53-7.47-7.94-9.99c0.36,0.09,0.73,0.17,1.1,0.26c0.01,0.02,0.01,0.04,0.03,0.05c0.02,0.01,0.03,0.03,0.05,0.04
					c-0.13,0.06-0.15,0.25,0.03,0.32c0.17,0.06,0.34,0.11,0.51,0.16c3.33,2.97,6.55,5.82,9.25,9.34c0.05,0.06,0.15,0.01,0.11-0.06
					c-2.12-3.06-4.65-6.12-7.69-8.54c0.39,0.08,0.77,0.18,1.15,0.3c1.32,1.11,2.4,2.34,3.42,3.84c1.04,1.51,2.03,3.01,3.32,4.36
					c0.05,0.06,0.14-0.02,0.09-0.08c-1.89-2.21-3.22-5.37-5.37-7.6c0.15,0.06,0.29,0.13,0.44,0.2c2.38,1.83,4.41,3.74,6.08,6.31
					c0.05,0.07,0.16,0.01,0.12-0.06c-0.92-1.7-2.18-3.39-3.7-4.83c0.81,0.53,1.58,1.12,2.34,1.73c-0.06,0.07-0.05,0.17,0.06,0.19
					c0.07,0.01,0.14,0.02,0.21,0.03c1.27,1.05,2.48,2.17,3.66,3.23c0.08,0.07,0.22-0.02,0.15-0.11c-0.52-0.65-1.08-1.28-1.65-1.89
					c0.24,0.19,0.49,0.37,0.73,0.56c0.07,0.06,0.18-0.03,0.11-0.1c-0.54-0.53-1.12-1.04-1.71-1.54c0.53,0.04,1.07,0.07,1.6,0.12
					c1.19,0.12,2.36,0.32,3.55,0.39c0.09,0,0.11-0.12,0.02-0.15c-1.68-0.46-3.84-0.81-5.72-0.81c-0.27-0.22-0.55-0.45-0.83-0.66
					c2.2,0.44,4.62,0.51,6.79,0.68C326.76,82.46,326.79,82.29,326.68,82.27z M296.11,53.28c-0.05,0.13-0.11,0.25-0.16,0.38
					c-0.02,0.06,0.01,0.11,0.06,0.14c-0.29,0.13-0.58,0.26-0.86,0.4C295.46,53.89,295.78,53.59,296.11,53.28z M287.91,59.86
					c0.23-0.15,0.46-0.31,0.69-0.46c-0.29,0.34-0.58,0.69-0.86,1.04C287.79,60.25,287.85,60.05,287.91,59.86z M287.11,60.39
					c0.03-0.02,0.05-0.04,0.08-0.05c-0.11,0.39-0.2,0.78-0.29,1.18c-0.13,0.16-0.25,0.33-0.37,0.49
					C286.72,61.46,286.92,60.93,287.11,60.39z M276.6,39.18c-0.09-0.24-0.18-0.48-0.27-0.72c0-0.01,0.01-0.01,0.01-0.01
					c0.12,0.09,0.23,0.19,0.35,0.28C276.67,38.87,276.63,39.02,276.6,39.18z M279.04,55.84c0.16,0.22,0.33,0.43,0.51,0.64
					c0.01,0.08,0.01,0.16,0.02,0.24C279.4,56.42,279.22,56.13,279.04,55.84z M272.07,60.05c0.17,0.04,0.34,0.08,0.5,0.12
					c0.02,0,0.03-0.01,0.05,0c0.09,0.26,0.17,0.52,0.26,0.78C272.62,60.65,272.35,60.35,272.07,60.05z M275.96,64.72
					c-0.47-0.64-0.96-1.27-1.47-1.89c0.03,0,0.05-0.02,0.08-0.04c0.25,0.09,0.5,0.18,0.76,0.27
					C275.52,63.62,275.72,64.17,275.96,64.72c0,0,0.01,0,0.02,0.01C275.97,64.72,275.96,64.72,275.96,64.72z M276.35,60.63
					c0.4,0.87,0.76,1.75,1.1,2.65c0.02,0.14,0.05,0.28,0.07,0.42c-0.09,0.01-0.17,0.07-0.15,0.17c0.12,0.59,0.23,1.19,0.33,1.81
					C277.35,63.98,276.85,62.3,276.35,60.63z M277.81,67.43c0.1,0,0.19-0.05,0.17-0.16c0-0.03-0.01-0.06-0.01-0.08
					c0.04,0.24,0.09,0.48,0.14,0.72C278.01,67.75,277.91,67.59,277.81,67.43z M262.6,84.66c0-0.08-0.07-0.16-0.19-0.15
					c-0.03,0.01-0.07,0.02-0.1,0.02c0.33-0.27,0.66-0.54,1-0.8C263.07,84.05,262.83,84.35,262.6,84.66z M272.08,77.77
					c-0.08,0.04-0.17,0.09-0.25,0.13c0.11-0.1,0.21-0.2,0.32-0.3c0.07-0.06,0.06-0.12,0.04-0.18c0.38-0.06,0.75-0.14,1.11-0.23
					C272.89,77.38,272.48,77.58,272.08,77.77z M267.9,84.83c-0.64,0.49-1.28,0.98-1.91,1.47c1.5-1.92,3.17-3.65,4.98-5.32
					C269.82,82.21,268.8,83.51,267.9,84.83z M278.93,76.08c-0.75,0.7-1.5,1.42-2.23,2.15c-2.51,1.77-4.96,3.64-7.39,5.52
					c2.4-2.78,5.2-5,8.3-7.31c0.44-0.16,0.89-0.33,1.32-0.5C278.93,75.98,278.93,76.03,278.93,76.08z M280.23,78.29
					c0.09-0.24,0.19-0.47,0.29-0.71c-0.04,0.37-0.08,0.73-0.11,1.1c-0.02,0.15-0.03,0.29-0.03,0.44c-0.15,2.07-0.17,4.16-0.11,6.25
					c-0.27-0.02-0.5-0.11-0.7-0.41c-0.01-0.02-0.03-0.02-0.04-0.03C279.61,82.7,279.83,80.49,280.23,78.29z M279.51,85.52
					c0.2,0.19,0.49,0.32,0.77,0.33c0.05,1.34,0.13,2.67,0.23,4c-0.05-0.01-0.1-0.02-0.14-0.03c-0.32-0.1-0.6-0.29-0.83-0.52
					C279.49,88.03,279.48,86.77,279.51,85.52z M280,94.8c0-0.03-0.01-0.07-0.01-0.1c-0.19-1.59-0.33-3.18-0.41-4.77
					c0.09,0.1,0.2,0.19,0.32,0.27c0.17,0.11,0.42,0.22,0.66,0.25c0.09,1.09,0.19,2.17,0.3,3.24c0.07,0.64,0.16,1.28,0.23,1.92
					c-0.47-0.09-0.92-0.27-1.05-0.76C280.03,94.83,280.01,94.81,280,94.8z M283.64,111.32c-0.07,0.06-0.14,0.12-0.22,0.15
					c-0.35,0.1-0.47-0.17-0.51-0.41c-0.02-0.15-0.18-0.18-0.31-0.13c-0.42-2.4-0.85-4.79-1.26-7.19c0.3,0.11,0.62,0.15,0.91,0.1
					C282.67,106.33,283.14,108.83,283.64,111.32z M282.16,103.3c-0.17,0-0.35,0-0.52-0.04c-0.15-0.04-0.28-0.1-0.41-0.17
					c-0.41-2.4-0.78-4.81-1.09-7.22c0.07,0.07,0.15,0.14,0.24,0.19c0.23,0.14,0.52,0.22,0.79,0.22
					C281.45,98.63,281.78,100.97,282.16,103.3z M281.25,84.64c-0.01-0.58-0.01-1.16-0.01-1.75c0.26,0.05,0.52,0.01,0.75-0.08
					C282.05,83.52,282.11,84.48,281.25,84.64z M281.35,82.37c-0.03-0.12-0.05-0.23,0-0.37c0.02-0.07-0.05-0.13-0.11-0.13
					c0-0.34,0.01-0.68,0.01-1.01c0.22,0.11,0.48,0.17,0.78,0.15c0.09-0.01,0.17-0.03,0.25-0.05c0.02,0.14,0.03,0.28,0.02,0.4
					C282.26,81.88,281.91,82.33,281.35,82.37z M292.19,79.46c-3-0.77-5.84-1.61-8.59-2.96C286.52,77.31,289.38,78.21,292.19,79.46z"
					/>
				<path d="M269.87,57.79c0.03,0.01,0.04,0,0.06,0c0.02,0.05,0.03,0.1,0.04,0.15c-0.06-0.06-0.12-0.11-0.18-0.17
					C269.82,57.77,269.84,57.78,269.87,57.79z"/>
				<path d="M252.08,76.04c0.15-0.06,0.3-0.12,0.45-0.18c-0.15,0.09-0.3,0.18-0.45,0.27C252.1,76.09,252.1,76.07,252.08,76.04z"/>
				<path d="M259.07,86.74c0.08-0.07,0.17-0.13,0.25-0.19c-0.13,0.13-0.25,0.26-0.37,0.38C259,86.87,259.03,86.8,259.07,86.74z"/>
				<path d="M293.15,54.34c0.01,0,0.01,0,0.02,0c0.05-0.02,0.1-0.04,0.16-0.06c-0.11,0.11-0.23,0.23-0.34,0.34
					C293.05,54.53,293.1,54.43,293.15,54.34z"/>
				<path d="M287.36,59.71c0,0-0.01,0.01-0.01,0.01c0.02-0.05,0.04-0.11,0.05-0.16C287.39,59.61,287.38,59.66,287.36,59.71z"/>
				<path d="M279.23,68.86c-0.01,0.11-0.01,0.21-0.02,0.32c-0.02-0.09-0.03-0.18-0.05-0.27C279.19,68.89,279.21,68.88,279.23,68.86z
					"/>
				<path d="M278.86,67.73c-0.07-0.27-0.15-0.53-0.23-0.8c-0.06-0.26-0.11-0.52-0.17-0.78C278.63,66.67,278.78,67.21,278.86,67.73z"
					/>
				<path d="M278.98,73.3c0,0.02,0,0.03,0,0.05c-0.14-0.09-0.29-0.18-0.43-0.27C278.69,73.16,278.83,73.24,278.98,73.3z"/>
				<path d="M307.87,76.39c0.08,0.03,0.17,0.05,0.25,0.08c-0.01,0.02-0.03,0.04-0.03,0.06C308.01,76.48,307.94,76.43,307.87,76.39z"
					/>
				<path d="M311.24,77.91c0.1,0.02,0.19,0.05,0.29,0.07c-0.02,0.05-0.02,0.1,0,0.16C311.43,78.06,311.33,77.98,311.24,77.91z"/>
				<path d="M300.3,72.49c-0.17,0.02-0.18,0.25,0,0.25c4.87-0.14,9.73-0.43,14.6-0.56c0.2-0.01,0.2-0.28,0-0.28
					C310.03,71.88,305.15,71.98,300.3,72.49z"/>
				<path d="M308.14,78.8c-1.12-1.24-2.4-2.69-4.15-3.17c-0.16-0.04-0.22,0.15-0.11,0.23c3.22,2.1,5.57,4.84,7.87,7.77
					c0.09,0.12,0.32,0.01,0.22-0.12C310.78,81.89,309.51,80.31,308.14,78.8z"/>
				<path d="M296.49,77.31c-0.61-0.5-1.22-1.01-1.93-1.39c-0.98-0.54-2.14-0.7-3.08-1.3c-0.19-0.12-0.43,0.16-0.25,0.3
					c0.44,0.35,0.84,0.51,1.38,0.7c1.59,0.57,2.61,1.17,3.9,2.2c1.94,1.54,3.88,3.08,5.83,4.6c0.09,0.07,0.22-0.05,0.13-0.12
					C300.49,80.63,298.51,78.95,296.49,77.31z"/>
			</g>
		</g>
		<path class="st0" d="M370.74,103h-3.99c0-45.77-36.79-82-82-82s-82,37.23-82,83h-4c0-47.97,38.58-87,86-87
			S370.74,55.03,370.74,103z"/>
		<path class="st0" d="M385.75,101.96h-4c0-51.79-43.74-93.93-97.5-93.93s-97.5,42.14-97.5,93.93h-4c0-54,45.53-97.93,101.5-97.93
			S385.75,47.97,385.75,101.96z"/>
		<path class="st0" d="M286.11,8.36c-0.54,0.07-1.06,0.24-1.53,0.45c-0.03,0.01-0.06,0.03-0.08,0.04c-0.78,0.37-1.5,0.88-1.99,1.59
			c-0.34,0.5-0.57,1.11-0.54,1.8c0.02,0.52,0.21,1.08,0.59,1.52c0.39,0.45,0.92,0.71,1.44,0.79c0.73,0.11,1.38-0.13,1.94-0.45
			c0.83-0.49,1.63-1.07,2.17-1.89c0.32-0.49,0.54-1.08,0.46-1.76c-0.05-0.51-0.27-1.04-0.6-1.5C287.51,8.32,286.68,8.28,286.11,8.36
			z"/>
		<g>
			<path class="st0" d="M355.77,40.18c-0.31-0.86-0.77-1.65-1.29-2.35c-0.03-0.04-0.06-0.08-0.1-0.13
				c-0.88-1.15-1.98-2.16-3.32-2.73c-0.94-0.39-2.03-0.57-3.15-0.3c-0.84,0.2-1.69,0.69-2.28,1.45c-0.6,0.78-0.84,1.74-0.77,2.61
				c0.09,1.23,0.7,2.22,1.44,3.02c1.1,1.19,2.35,2.32,3.88,2.93c0.91,0.36,1.97,0.52,3.04,0.19c0.81-0.25,1.61-0.78,2.23-1.46
				C356.33,42.46,356.09,41.1,355.77,40.18z"/>
			<path class="st0" d="M317.71,22.42c0.69,0.49,1.46,0.87,2.24,1.16c0.05,0.02,0.09,0.03,0.14,0.05c1.3,0.47,2.7,0.75,4.09,0.61
				c0.96-0.1,1.95-0.41,2.72-1.06c0.58-0.49,1.04-1.18,1.14-1.97c0.1-0.81-0.19-1.59-0.68-2.18c-0.69-0.85-1.69-1.3-2.7-1.58
				c-1.5-0.41-3.09-0.71-4.64-0.53c-0.93,0.11-1.87,0.42-2.58,1.1c-0.54,0.51-0.92,1.21-1.09,1.95
				C316.1,21.02,316.99,21.9,317.71,22.42z"/>
			<path class="st0" d="M366.19,55.99c-0.7,0.05-1.36,0.23-1.96,0.49c-0.04,0.02-0.07,0.03-0.11,0.05
				c-0.99,0.43-1.88,1.05-2.45,1.97c-0.4,0.64-0.65,1.44-0.55,2.35c0.08,0.69,0.37,1.45,0.9,2.07c0.55,0.63,1.27,1.02,1.96,1.16
				c0.97,0.2,1.8-0.06,2.49-0.46c1.04-0.59,2.04-1.3,2.66-2.35c0.37-0.62,0.6-1.4,0.45-2.3c-0.12-0.68-0.45-1.41-0.91-2.03
				C368.02,56.04,366.93,55.93,366.19,55.99z"/>
			<path class="st0" d="M378.12,84.63c-0.4-0.52-0.87-0.93-1.37-1.25c-0.03-0.02-0.06-0.04-0.09-0.06
				c-0.82-0.51-1.74-0.84-2.71-0.73c-0.67,0.07-1.39,0.37-2.01,1c-0.47,0.48-0.88,1.17-1.06,1.97c-0.18,0.82-0.09,1.62,0.16,2.24
				c0.35,0.88,0.97,1.38,1.62,1.69c0.96,0.46,2.01,0.81,3.1,0.67c0.65-0.09,1.34-0.38,1.92-1.05c0.44-0.5,0.8-1.21,1.03-1.96
				C379.02,86.1,378.54,85.18,378.12,84.63z"/>
			<path class="st0" d="M376.93,76.33c-0.3-0.41-0.73-0.67-1.12-0.83c-0.39-0.16-0.77-0.19-1.13-0.17
				c-0.59,0.04-1.15,0.23-1.65,0.48c-0.03,0.02-0.06,0.03-0.09,0.05c-1.17,0.81-2.33,1.64-3.44,2.54c-0.23,0.18-0.49,0.36-0.66,0.61
				c-0.14,0.19-0.19,0.45-0.2,0.73c0,0.66,0.31,1.42,0.83,1.93c0.83,0.81,1.86,1.02,2.69,0.95c0.69-0.06,1.33-0.28,1.94-0.51
				c0.59-0.22,1.16-0.49,1.68-0.84c0.74-0.5,1.46-1.18,1.7-2.23c0.09-0.4,0.1-0.86,0.01-1.33C377.4,77.24,377.23,76.73,376.93,76.33
				z"/>
			<path class="st0" d="M304.96,11.37c-0.31-0.42-0.74-0.69-1.13-0.86c-0.39-0.17-0.77-0.21-1.13-0.19
				c-0.59,0.03-1.14,0.21-1.63,0.45c-0.03,0.01-0.06,0.03-0.09,0.05c-1.14,0.8-2.29,1.62-3.37,2.51c-0.22,0.18-0.48,0.36-0.65,0.6
				c-0.13,0.19-0.18,0.46-0.18,0.74c0.01,0.67,0.33,1.44,0.86,1.96c0.84,0.83,1.86,1.06,2.69,1c0.68-0.05,1.31-0.26,1.92-0.48
				c0.58-0.22,1.14-0.48,1.65-0.82c0.73-0.49,1.43-1.17,1.65-2.22c0.09-0.41,0.09-0.87-0.01-1.35
				C305.44,12.31,305.26,11.78,304.96,11.37z"/>
			<path class="st0" d="M359.75,44.02c-0.29-0.41-0.7-0.69-1.05-0.87c-0.36-0.18-0.7-0.23-1.02-0.23c-0.53,0-1.01,0.14-1.44,0.35
				c-0.03,0.01-0.05,0.03-0.08,0.04c-0.99,0.71-1.97,1.42-2.9,2.22c-0.19,0.16-0.41,0.31-0.55,0.54c-0.11,0.17-0.14,0.42-0.13,0.69
				c0.04,0.63,0.37,1.38,0.87,1.91c0.79,0.83,1.72,1.1,2.46,1.08c0.61-0.01,1.16-0.18,1.7-0.36c0.51-0.18,1-0.4,1.44-0.7
				c0.63-0.43,1.22-1.04,1.37-2.03c0.06-0.38,0.04-0.82-0.08-1.28C360.23,44.94,360.04,44.43,359.75,44.02z"/>
			<path class="st0" d="M334.79,22.09c-0.32-0.44-0.77-0.72-1.18-0.9c-0.41-0.18-0.8-0.22-1.17-0.2c-0.61,0.03-1.18,0.21-1.7,0.47
				c-0.03,0.02-0.06,0.03-0.09,0.05c-1.19,0.83-2.37,1.68-3.49,2.61c-0.23,0.19-0.49,0.37-0.67,0.63c-0.14,0.2-0.19,0.48-0.18,0.77
				c0.01,0.7,0.35,1.51,0.9,2.06c0.88,0.88,1.94,1.12,2.8,1.06c0.71-0.05,1.36-0.26,2-0.5c0.6-0.22,1.18-0.49,1.71-0.85
				c0.76-0.51,1.48-1.22,1.71-2.32c0.09-0.43,0.09-0.91-0.02-1.41C335.3,23.08,335.11,22.53,334.79,22.09z"/>
			<path class="st0" d="M375.98,91.09l-0.1-0.09c0,0-3.22-2-4.19,0.31c-0.98,2.31,1.61,5.54,3.73,6.98S384.54,96.73,375.98,91.09z"
				/>
			<path class="st0" d="M311.51,12.22l-0.12-0.1c0,0-3.81-2.37-4.96,0.35c-1.14,2.71,1.93,6.52,4.44,8.22
				C313.38,22.39,321.66,18.89,311.51,12.22z"/>
			<path class="st0" d="M359.52,50.22l-0.13-0.03c0,0-3.85-0.41-3.73,1.98c0.13,2.38,3.95,4.11,6.54,4.48
				C364.79,57.01,369.92,51.58,359.52,50.22z"/>
			<path class="st0" d="M341.74,26.74l-0.12-0.14c0,0-3.97-3.33-5.72-0.41c-1.75,2.92,1.14,7.77,3.73,10.13
				C342.21,38.68,352.25,36.03,341.74,26.74z"/>
			<path class="st0" d="M369.55,66.08l-0.15-0.11c0,0-4.53-2.72-5.48-0.25c-0.95,2.47,2.92,6.48,5.91,8.41
				C372.83,76.06,381.64,73.68,369.55,66.08z"/>
			<path class="st0" d="M295.5,14.45l0.14-0.06c0,0,3.69-2.24,2.31-3.81c-1.38-1.57-5.73-0.27-8.27,1.16
				C287.15,13.17,285.41,20.3,295.5,14.45z"/>
		</g>
		<g>
			<path class="st0" d="M213.09,40.18c0.31-0.86,0.77-1.65,1.29-2.35c0.03-0.04,0.06-0.08,0.1-0.13c0.88-1.15,1.98-2.16,3.32-2.73
				c0.94-0.39,2.03-0.57,3.15-0.3c0.84,0.2,1.69,0.69,2.28,1.45c0.6,0.78,0.84,1.74,0.77,2.61c-0.09,1.23-0.7,2.22-1.44,3.02
				c-1.1,1.19-2.35,2.32-3.88,2.93c-0.91,0.36-1.97,0.52-3.04,0.19c-0.81-0.25-1.61-0.78-2.23-1.46
				C212.52,42.46,212.76,41.1,213.09,40.18z"/>
			<path class="st0" d="M251.14,22.42c-0.69,0.49-1.46,0.87-2.24,1.16c-0.05,0.02-0.09,0.03-0.14,0.05c-1.3,0.47-2.7,0.75-4.09,0.61
				c-0.96-0.1-1.95-0.41-2.72-1.06c-0.58-0.49-1.04-1.18-1.14-1.97c-0.1-0.81,0.19-1.59,0.68-2.18c0.69-0.85,1.69-1.3,2.7-1.58
				c1.5-0.41,3.09-0.71,4.64-0.53c0.93,0.11,1.87,0.42,2.58,1.1c0.54,0.51,0.92,1.21,1.09,1.95
				C252.75,21.02,251.87,21.9,251.14,22.42z"/>
			<path class="st0" d="M202.67,55.99c0.7,0.05,1.36,0.23,1.96,0.49c0.04,0.02,0.07,0.03,0.11,0.05c0.99,0.43,1.88,1.05,2.45,1.97
				c0.4,0.64,0.65,1.44,0.55,2.35c-0.08,0.69-0.37,1.45-0.9,2.07c-0.55,0.63-1.27,1.02-1.96,1.16c-0.97,0.2-1.8-0.06-2.49-0.46
				c-1.04-0.59-2.04-1.3-2.66-2.35c-0.37-0.62-0.6-1.4-0.45-2.3c0.12-0.68,0.45-1.41,0.91-2.03
				C200.84,56.04,201.92,55.93,202.67,55.99z"/>
			<path class="st0" d="M190.73,84.63c0.4-0.52,0.87-0.93,1.37-1.25c0.03-0.02,0.06-0.04,0.09-0.06c0.82-0.51,1.74-0.84,2.71-0.73
				c0.67,0.07,1.39,0.37,2.01,1c0.47,0.48,0.88,1.17,1.06,1.97c0.18,0.82,0.09,1.62-0.16,2.24c-0.35,0.88-0.97,1.38-1.62,1.69
				c-0.96,0.46-2.01,0.81-3.1,0.67c-0.65-0.09-1.34-0.38-1.92-1.05c-0.44-0.5-0.8-1.21-1.03-1.96
				C189.83,86.1,190.31,85.18,190.73,84.63z"/>
			<path class="st0" d="M191.93,76.33c0.3-0.41,0.73-0.67,1.12-0.83c0.39-0.16,0.77-0.19,1.13-0.17c0.59,0.04,1.15,0.23,1.65,0.48
				c0.03,0.02,0.06,0.03,0.09,0.05c1.17,0.81,2.33,1.64,3.44,2.54c0.23,0.18,0.49,0.36,0.66,0.61c0.14,0.19,0.19,0.45,0.2,0.73
				c0,0.66-0.31,1.42-0.83,1.93c-0.83,0.81-1.86,1.02-2.69,0.95c-0.69-0.06-1.33-0.28-1.94-0.51c-0.59-0.22-1.16-0.49-1.68-0.84
				c-0.74-0.5-1.46-1.18-1.7-2.23c-0.09-0.4-0.1-0.86-0.01-1.33C191.46,77.24,191.63,76.73,191.93,76.33z"/>
			<path class="st0" d="M263.9,11.37c0.31-0.42,0.74-0.69,1.13-0.86c0.39-0.17,0.77-0.21,1.13-0.19c0.59,0.03,1.14,0.21,1.63,0.45
				c0.03,0.01,0.06,0.03,0.09,0.05c1.14,0.8,2.29,1.62,3.37,2.51c0.22,0.18,0.48,0.36,0.65,0.6c0.13,0.19,0.18,0.46,0.18,0.74
				c-0.01,0.67-0.33,1.44-0.86,1.96c-0.84,0.83-1.86,1.06-2.69,1c-0.68-0.05-1.31-0.26-1.92-0.48c-0.58-0.22-1.14-0.48-1.65-0.82
				c-0.73-0.49-1.43-1.17-1.65-2.22c-0.09-0.41-0.09-0.87,0.01-1.35C263.42,12.31,263.6,11.78,263.9,11.37z"/>
			<path class="st0" d="M209.1,44.02c0.29-0.41,0.7-0.69,1.05-0.87c0.36-0.18,0.7-0.23,1.02-0.23c0.53,0,1.01,0.14,1.44,0.35
				c0.03,0.01,0.05,0.03,0.08,0.04c0.99,0.71,1.97,1.42,2.9,2.22c0.19,0.16,0.41,0.31,0.55,0.54c0.11,0.17,0.14,0.42,0.13,0.69
				c-0.04,0.63-0.37,1.38-0.87,1.91c-0.79,0.83-1.72,1.1-2.46,1.08c-0.61-0.01-1.16-0.18-1.7-0.36c-0.51-0.18-1-0.4-1.44-0.7
				c-0.63-0.43-1.22-1.04-1.37-2.03c-0.06-0.38-0.04-0.82,0.08-1.28C208.63,44.94,208.81,44.43,209.1,44.02z"/>
			<path class="st0" d="M234.06,22.09c0.32-0.44,0.77-0.72,1.18-0.9c0.41-0.18,0.8-0.22,1.17-0.2c0.61,0.03,1.18,0.21,1.7,0.47
				c0.03,0.02,0.06,0.03,0.09,0.05c1.19,0.83,2.37,1.68,3.5,2.61c0.23,0.19,0.49,0.37,0.67,0.63c0.14,0.2,0.19,0.48,0.18,0.77
				c-0.01,0.7-0.35,1.51-0.9,2.06c-0.88,0.88-1.94,1.12-2.8,1.06c-0.71-0.05-1.36-0.26-2-0.5c-0.6-0.22-1.18-0.49-1.71-0.85
				c-0.76-0.51-1.48-1.22-1.71-2.32c-0.09-0.43-0.09-0.91,0.02-1.41C233.56,23.08,233.75,22.53,234.06,22.09z"/>
			<path class="st0" d="M192.88,91.78l0.1-0.09c0,0,3.22-2,4.19,0.31s-1.61,5.54-3.73,6.98C191.32,100.42,184.31,97.43,192.88,91.78
				z"/>
			<path class="st0" d="M257.34,12.22l0.12-0.1c0,0,3.81-2.37,4.96,0.35c1.14,2.71-1.93,6.52-4.44,8.22
				C255.47,22.39,247.2,18.89,257.34,12.22z"/>
			<path class="st0" d="M209.34,50.22l0.13-0.03c0,0,3.85-0.41,3.73,1.98c-0.13,2.38-3.95,4.11-6.54,4.48
				C204.07,57.01,198.94,51.58,209.34,50.22z"/>
			<path class="st0" d="M227.12,26.74l0.12-0.14c0,0,3.97-3.33,5.72-0.41c1.75,2.92-1.14,7.77-3.73,10.13
				C226.64,38.68,216.61,36.03,227.12,26.74z"/>
			<path class="st0" d="M199.31,66.08l0.15-0.11c0,0,4.53-2.72,5.48-0.25c0.95,2.47-2.92,6.48-5.91,8.41
				C196.03,76.06,187.22,73.68,199.31,66.08z"/>
			<path class="st0" d="M273.35,14.45l-0.14-0.06c0,0-3.69-2.24-2.31-3.81c1.38-1.57,5.73-0.27,8.27,1.16
				C281.71,13.17,283.45,20.3,273.35,14.45z"/>
		</g>
	</g>
	<g>
		<path d="M34.74,114.64v-2.84h16.34v2.84l-5.74,0.5l10.92,32.37l2.02,6.5l1.77-6.56l9.59-32.3l-5.11-0.5v-2.84h13.94v2.84
			l-3.97,0.44l-14.95,45.17h-4.29L38.9,115.08L34.74,114.64z"/>
		<path d="M87.78,156.76v-35.21l-4.54-0.43v-2.43h13.88v2.43l-4.54,0.43v35.21l4.75,0.7v2.16h-14.2v-2.16L87.78,156.76z"/>
		<path d="M109.05,156.76v-34.99l-4.43-0.38v-2.7h14.04v2.7l-4.81,0.38l-0.05,35.1l14.63-0.59l3.13-6.37l2.21,1.08l-1.73,8.64
			h-27.54v-2.16L109.05,156.76z"/>
		<path d="M143.18,156.76v-34.99l-4.43-0.38v-2.7h14.04v2.7l-4.81,0.38l-0.05,35.1l14.63-0.59l3.13-6.37l2.21,1.08l-1.73,8.64
			h-27.54v-2.16L143.18,156.76z"/>
		<path d="M173.8,156.76l13.88-38.12h4.1l13.34,38.12l4.27,0.7v2.16h-13.66v-2.16l4.37-0.7l-2.97-8.75h-16.2l-2.97,8.75l4.43,0.7
			v2.16h-12.37v-2.16L173.8,156.76z M191.4,131.17l-2.27-7.34l-7.24,21.28h14.2L191.4,131.17z"/>
		<path d="M231.9,156.76v-35.21l-4.43-0.43v-2.43h6.59l2.43-0.16c3.31-0.18,5.78-0.25,7.4-0.22c4.18,0.04,7.39,0.86,9.64,2.48
			c2.25,1.62,3.38,3.87,3.38,6.75c0,2.56-0.66,4.74-1.97,6.56c-1.31,1.82-3.27,3-5.86,3.54c1.94,0.04,3.71,0.47,5.29,1.3
			c1.58,0.83,2.84,1.99,3.78,3.48c0.94,1.49,1.4,3.21,1.4,5.16c0,3.78-1.45,6.8-4.35,9.04c-2.9,2.25-7.14,3.38-12.72,3.38
			c-1.33,0-3.67-0.09-7.02-0.27c-0.72-0.07-1.22-0.11-1.51-0.11h-6.59v-2.16L231.9,156.76z M240.49,136.78h2.97
			c2.74,0,4.9-0.71,6.48-2.13c1.58-1.42,2.38-3.5,2.38-6.24c0-2.45-0.87-4.3-2.62-5.56c-1.75-1.26-4.01-1.89-6.78-1.89
			c-0.97,0-2.12,0.02-3.43,0.05c-1.31,0.04-2.24,0.14-2.78,0.32l-0.05,15.28C237.34,136.73,238.61,136.78,240.49,136.78z M239.6,157
			c1.46,0.2,2.78,0.3,3.97,0.3c3.24,0,5.87-0.69,7.88-2.08c2.02-1.38,3.02-3.63,3.02-6.72c0-3.02-0.86-5.24-2.59-6.64
			c-1.73-1.4-4.27-2.11-7.61-2.11l-4-0.05c-1.44,0-2.65,0.05-3.62,0.16v16.47C237.16,156.58,238.14,156.81,239.6,157z"/>
		<path d="M294.08,120.88c2.57,1.71,4.55,4.07,5.94,7.07c1.39,3.01,2.08,6.42,2.08,10.23c0,4.57-0.83,8.53-2.48,11.88
			c-1.66,3.35-3.91,5.9-6.75,7.67c-2.84,1.76-5.99,2.65-9.45,2.65c-3.53,0-6.63-0.86-9.31-2.59c-2.68-1.73-4.75-4.11-6.21-7.16
			c-1.46-3.04-2.19-6.49-2.19-10.34c0-4.61,0.91-8.6,2.73-11.99c1.82-3.38,4.24-5.92,7.26-7.61c2.88-1.58,6.01-2.38,9.4-2.38
			C288.51,118.31,291.51,119.17,294.08,120.88z M277.23,123.2c-1.96,1.49-3.48,3.65-4.56,6.48c-1.08,2.83-1.62,6.18-1.62,10.07
			c0,3.24,0.53,6.23,1.59,8.96c1.06,2.74,2.59,4.92,4.59,6.56c2,1.64,4.33,2.46,6.99,2.46c2.59,0,4.83-0.76,6.72-2.27
			s3.34-3.69,4.35-6.53c1.01-2.84,1.51-6.21,1.51-10.1c0-3.2-0.5-6.17-1.48-8.91c-0.99-2.74-2.45-4.91-4.37-6.53
			c-1.93-1.62-4.2-2.43-6.83-2.43C281.49,120.96,279.19,121.71,277.23,123.2z"/>
		<path d="M320.51,156.76v-35.37l-10.04,0.54l-1.73,4.75l-2.27,0.05l0.65-8.05h31.43l-0.05,8.15l-2,0.22l-1.3-5.18l-9.88-0.49v35.37
			l6.97,0.7v2.16h-18.41v-2.16L320.51,156.76z"/>
		<path d="M344.43,156.76l13.88-38.12h4.1l13.34,38.12l4.27,0.7v2.16h-13.66v-2.16l4.37-0.7l-2.97-8.75h-16.2l-2.97,8.75l4.43,0.7
			v2.16h-12.37v-2.16L344.43,156.76z M362.04,131.17l-2.27-7.34l-7.24,21.28h14.2L362.04,131.17z"/>
		<path d="M423.22,121.34l-4.43,0.43v37.85h-5.13l-17.77-27.97l-3.73-7.4v32.51l5.24,0.7v2.16h-13.28v-2.16l4.54-0.7v-34.99
			l-4.37-0.38v-2.7h9.18l18.04,29.32l3.78,7.18v-33.37l-4.43-0.49v-2.65h12.37V121.34z"/>
		<path d="M434.18,156.76v-35.21l-4.54-0.43v-2.43h13.88v2.43l-4.54,0.43v35.21l4.75,0.7v2.16h-14.2v-2.16L434.18,156.76z"/>
		<path d="M476.57,118.72c1.44,0.27,2.97,0.64,4.59,1.11l1.51,0.38l-0.43,7.56h-2.59l-1.3-4.54c-1.12-0.72-2.3-1.24-3.54-1.57
			c-1.24-0.32-2.78-0.49-4.62-0.49c-2.63,0-5.07,0.7-7.32,2.11c-2.25,1.4-4.05,3.46-5.4,6.16c-1.35,2.7-2.02,5.87-2.02,9.5
			c0,3.42,0.58,6.56,1.73,9.42c1.15,2.86,2.85,5.14,5.1,6.83c2.25,1.69,4.94,2.54,8.07,2.54c4.21,0,7.15-1.01,8.8-3.02l1.4-4.21
			h2.16v7.45c-0.47,0.04-1.03,0.14-1.67,0.32s-1.1,0.31-1.35,0.38c-1.62,0.54-3.21,0.96-4.78,1.27s-3.45,0.46-5.64,0.46
			c-3.6,0-6.84-0.85-9.72-2.54c-2.88-1.69-5.13-4.05-6.75-7.07c-1.62-3.02-2.43-6.46-2.43-10.31c0-4.36,0.97-8.22,2.92-11.58
			s4.54-5.97,7.8-7.8c3.26-1.84,6.79-2.75,10.61-2.75C473.51,118.31,475.13,118.45,476.57,118.72z"/>
		<path d="M491.15,156.28l16.21-44.54h4.79l15.58,44.54l4.98,0.82v2.52h-15.96v-2.52l5.11-0.82l-3.47-10.22h-18.93l-3.47,10.22
			l5.17,0.82v2.52h-14.45v-2.52L491.15,156.28z M511.72,126.37l-2.65-8.58l-8.45,24.86h16.59L511.72,126.37z"/>
	</g>
</g>
</svg>
